<?xml version="1.0" encoding="UTF-8"?>
<svg id="Layer_3" data-name="Layer 3" xmlns="http://www.w3.org/2000/svg" version="1.1" viewBox="0 0 792 612">
  <defs>
    <style>
      .cls-1 {
        fill: #f1f2f2;
        stroke-width: 0px;
      }
    </style>
  </defs>
  <path class="cls-1" d="M57.06,308.24c0,2.24,1.12,3.92,3.08,4.48,5.04,1.96,9.52,5.32,14.84,6.44,2.8.56,5.6,1.68,7.84,3.08,1.4.84,2.8,1.4,4.48,1.68,2.24.28,4.48,1.4,6.44,2.24,9.24,4.48,19.04,7.56,29.12,8.4,3.36.28,6.72.84,9.8,1.96,6.44,2.24,9.52,5.6,9.52,12.32.28,9.8-.28,19.32-.56,29.12,0,1.68-.28,3.08-1.12,4.48-1.4,1.96-5.88,1.12-8.96-.56-1.68-1.12-3.36-1.96-5.04-3.36-4.2-3.64-9.24-6.44-14.28-9.52-7.84-4.48-16.8-7-25.2-10.92-8.12-3.64-16.24-7.84-24.64-10.64s-15.68-8.12-24.64-10.36c-4.2-1.12-8.68-3.36-12.04-6.16-5.04-4.2-7.84-9.52-7.28-16.24.28-3.92.28-7.84.28-11.76-.28-6.44,1.96-11.48,7-15.96,4.48-3.64,10.36-4.76,15.4-7.28,12.6-6.44,26.32-10.64,39.2-16.52,6.44-3.08,13.16-5.04,19.6-7.84,4.48-1.96,8.68-4.2,12.88-6.44,7-3.92,13.16-9.24,19.6-13.44,4.48-3.08,8.12-1.96,8.96,3.36.84,3.36,1.12,7,.84,10.36-.28,7,.56,14-.28,20.72-1.12,8.68-3.64,12.04-11.48,12.6-6.44.28-12.88,1.96-19.32,2.8-5.04.84-9.52,2.8-14,4.76-8.4,3.92-17.36,6.44-25.76,10.36-3.64,1.68-7,3.08-10.64,4.2-1.68.56-3.36,1.4-3.64,3.64ZM50.9,321.4c-1.68-2.8-3.08-3.92-2.52-5.6.56-1.68.84-3.08,1.12-3.08-.28,0,0-1.12-.84-1.4-.84-.28-1.4-1.68-2.24-3.64-1.12-1.96-.84-3.08-.28-2.52.84.28,1.96-.56,2.24-1.12.28-.56-.84-1.68-1.4-2.8-.28-.84,1.12-2.24,1.96-3.36.56-1.12.84-2.52,1.68-2.8.84-.28.56-1.4-.28-1.12-1.12.28-1.4,1.96-1.68,1.96-.56.28-.84-1.4-1.4-3.08-.28-1.4-1.4-2.52-1.4-2.8,0-.56-.28-.28-.28,0v1.68c-.28.56-1.4.56-2.24.84-1.12,0-1.4.84-1.4,1.12l-1.12-.56c-.84-.28-1.68-.28-1.96.28-.28.56,0,1.12.56,1.12.56.28,0,1.4-.28.84-.56-.28-1.4-.56-2.24.28-.84.84-1.68,1.68-2.52,1.68l-1.68.56s.28.28.56.84c.28.56,0,1.68-.28,3.08,0,1.4,1.12,2.52.28,3.08-.84.56-1.68.84-1.96.56-.28,0-.28.28,0,.28s1.4.84,2.52.28,2.24,0,1.12,1.12c-.84.84-1.96,1.96-2.24,2.8,0,1.12-.56,2.24-.84,2.8-.28.56-.56.56-.56,0,.28-.84-.28-.84-.28-.28-.28.84,1.68,1.68,2.8,2.8.84.84,1.12,1.68,1.12,3.08,0,.56.28,1.12.56,1.68.56.56,1.4.84,1.68.84.28-.28.56.28.28.28-.56,0-.84.56-.84,1.12s1.96.56,3.64,0c1.68-.56,3.36-.84,3.36-.56-.56.56-1.4.84-1.96,1.12-.84.56,1.12,1.4,3.64,1.12,2.8-.28,5.04,1.12,5.88,2.24.56,1.12,1.68-2.24-.28-4.76ZM36.34,309.36c.84.28,1.68.28,1.68.28,0,0-.56.56-1.12.84-.28.28-.28.84-.56,1.12,0,.28.28.56.28.56.56.28.28.84-.28,1.12-.56,0-1.68-.84-1.96-1.96,0-1.12.84-2.24,1.96-1.96ZM36.34,299.56c0-.28.56,0,.56.28s-.56,0-.56-.28ZM36.62,315.8c-.28,0-.28-.28,0-.56.28,0,.28.56,0,.56ZM37.46,304.04c-.28-.56.28-.84.28-.28.28.28-.28.56-.28.28ZM39.98,303.48c.28.28-.56.56-.56.28s.56-.56.56-.28ZM41.1,316.08c.28.28.28.56,0,.56s-.28-.56,0-.56ZM42.78,312.16v.28c-.28,0,0-.28,0-.28ZM45.02,294.52c.56.56.28,1.4-.56,1.4-.56.28-1.4-.28-1.4-.84s1.12-.84,1.96-.56ZM45.3,318.6c0,.28-.28.56-.28.28-.28,0,0-.56.28-.28ZM45.58,327h-.28l.28.28v-.28ZM46.42,303.2c.84-.28,1.4.28,1.4.56-.28.56-.84.56-1.4.28-.56,0-.84-.84,0-.84ZM46.98,314.4c0,.56-1.12.56-.84,0,0-.84.84-.56.84,0ZM48.66,321.4c-.28.28-1.12-.28-.84-.56.28-.28,1.12.28.84.56ZM48.94,327.28c-.28,0,0,.56.28.56s0-.84-.28-.56ZM49.78,290.88c.56,0,.56-.56,0-.84-.56-.28-.56.84,0,.84ZM51.46,328.96c-.28-.28-.28.28,0,.28s.28-.28,0-.28ZM52.86,296.2c-.28-.28-.56,0-.28.28,0,.28.28.28.28,0q.28-.28,0-.28ZM54.26,323.36c-.28-.28-.28,0,0,.28.28,0,.56.28.56.28.28,0,0-.28-.56-.56ZM54.54,292.56s.28,0,.28-.28h-.28v.28ZM60.98,330.36c.28,1.12,1.68.84,1.4,0,0-.84-1.4-.84-1.4,0ZM66.58,285.28l.28-.28s0-.28-.28-.28v.56ZM76.38,334.28c0,.28.28.28.28.28v-.28h-.28ZM79.46,339.04c.28,0,.28-.28.28-.28,0,0-.28,0-.28.28ZM87.3,340.44c.28,0,.56-.28.28-.28,0-.28-.28,0-.28.28ZM87.58,276.32c0,.28.28.28.28.28v-.28h-.28ZM90.66,276.04c1.12,0,.84-1.4,0-1.4-.84-.28-1.12,1.12,0,1.4ZM91.22,342.68c.28-.28-.28-.84-.56-.56-.28.28.28.84.56.56ZM90.94,345.2q0-.28-.28,0l.28.28v-.28ZM91.22,279.12h-.28c0,.28.28,0,.28,0ZM92.9,277.44c0,.28.28.28.56,0,0-.28-.56-.56-.56,0ZM94.86,342.4c.28,1.12.84,1.68,1.68,1.4.84,0,.84-1.12.28-1.96-.84-.84-1.68-1.4-1.68-1.4-.28,0-.28,1.12-.28,1.96ZM95.98,275.48c.84.56,1.96,0,1.96-.56-.28-.56-.84-.84-.84-.84,0,0-.56.28-1.4.28-.56.28-.28.84.28,1.12ZM99.62,348.28c.28.84,2.52.28,4.2-.28,1.68-.84,3.08.56,2.52,1.12-.56.84.84,1.96,1.12,1.12.56-.56,1.4-.84,1.4-.28.28.56,3.08.56,6.44,0,3.08-.56,4.2-1.12,2.8-1.4-1.68-.28-3.64-1.12-5.04-.28-1.4.56-2.52.28-3.08-.56-.28-1.12-.28-1.68.56-1.4.84,0,.84-.84,0-.84s-2.24.28-3.36.28h-1.96c-1.12.28-1.68.56-2.52,1.12-1.4.56-2.52-.28-2.24-1.12,0-.84.56-1.68.84-1.96.56-.28,0-.84-.28-.28l-1.12,1.68c-.28.56-.28.84-.28,1.4-.28.56-.28,1.12,0,1.68ZM99.62,268.48q0,.28.28.28c.28-.28,0-.56,0-.56-.28,0-.56.28-.28.28ZM99.62,272.12c.28.28.56-.56.28-.84-.28,0-.56.56-.28.84ZM103.82,271.28c1.12.28,2.24.56,2.52.84.28.56,0,1.12-.56,1.4-.56.56.28,1.12.84.84.56-.56,1.4-2.24,1.4-3.64,0-1.68,1.68-1.4,1.68.28,0,1.4,0,1.96,1.12,1.4.84-.56,1.12-1.4.84-2.24-.28-.84,1.12-1.12,1.68-.28.28.84-.56,1.68-.28,1.96l1.12.84c.56,0,.84-.28.84-1.12.28-.84,1.4-1.96,1.96-2.8.84-.56,2.8.28,1.68,1.12-.84,1.12.28,2.24,1.4,1.12.84-1.12,2.52-1.4,3.08-.56.28.84,1.4.28,1.68.28,0-.28.28-.28.28-.28h-.28c-.28.28-.84-.84,0-1.4.84-.56,1.12-1.12.56-1.68-.28-.28-.56-.56-.56-1.12,0-.28.56-.56,1.12-.56.56-.56-.28-1.4-1.12-1.4-.84-.28-1.12-1.4-.56-1.4.28,0,.56,0,.56-.56.28-.56.28-.84.28-1.4-.28-.84-1.68-.28-2.24.28-.84.56-2.24.56-3.36.56-1.4.28-3.08.84-3.36,1.96-.56,1.12-1.12,2.24-1.96,1.96-.56-.56-.84-2.24-.56-3.64,0-1.4-.56-1.4-1.12-.56-.56,1.12-1.68,2.24-1.12,3.36.28,1.12-1.4,1.12-2.8,1.12-1.68,0-2.24.56-1.96,1.4.28.56-.84,1.96-1.96,2.24-1.4.28-1.68,1.68-.84,1.68ZM105.22,343.8c0,.28.28.28.28,0,0-.56-.28-.28-.28,0ZM119.22,352.2c-.84.28-1.68.84-2.52.56-.84-.28-1.96,0-1.68.56.28.84,1.4,1.12,2.24.84.56-.56,1.4-.84,2.24-.84.56,0,.28-1.4-.28-1.12ZM118.38,355.56h-.28v.28l.28-.28ZM118.94,264.84c.28-.28.84.28.56.84-.28.28-1.12-.28-.56-.84ZM120.9,356.4c.28,1.4,1.4,1.12,1.4-.28-.28-1.12-1.68-1.12-1.4.28ZM120.9,351.08c0,.28.84.28.84,0-.28-.28-.56-.56-.84,0ZM122.02,265.68c-.28-.56.56-.84.84-.28.28.28-.56.84-.84.28ZM125.66,353.32c1.4-.56.84-1.68-.28-1.4-1.4.28-1.12,1.68.28,1.4ZM124.82,349.12q.28,0,.28-.28c-.28-.28-.56,0-.28.28Z"/>
  <path class="cls-1" d="M364.5,398.96c-2.8.28-5.6.28-8.4.56-10.08.84-20.16-.84-30.24-.56-2.24,0-4.48,0-6.72.56-5.6.84-12.32-3.64-14-9.24-1.4-4.2-2.24-8.4-2.52-12.88-.28-5.88-8.68-13.44-14.56-12.88-7,.84-13.72-.28-20.72.28-6.16.56-12.04-.56-18.2-.28-7.84.56-15.68-.56-23.52.56-1.4,0-2.8.28-3.64,1.4-3.36,2.8-8.12,4.48-8.96,9.8-.84,4.48-2.52,8.4-3.08,12.88-.84,6.16-9.8,10.64-14.84,10.08-6.44-.84-13.16-.28-19.6.28h-7.84c-3.64,0-7.28-.56-10.92,0-1.4.28-2.52.28-3.64-.28-1.96-1.12-3.08-4.2-3.08-6.16,0-1.68,3.36-7.56,6.44-13.16,1.96-3.64,3.64-7.28,5.6-10.64,2.8-4.48,4.76-9.52,7-14,2.52-5.04,4.76-10.36,6.72-15.68,1.96-4.48,3.36-9.52,5.88-14,2.8-5.04,4.48-10.92,7-16.24,3.64-7.84,7.28-15.68,10.64-23.52,2.52-6.72,6.44-12.88,8.12-20.16,1.12-4.2,4.2-7.84,5.88-12.04,2.52-8.12,7-15.4,9.24-23.52,1.4-5.32,4.48-10.08,7-14.84,2.8-6.16,8.68-8.68,14.84-10.36.28-.28.84-.28,1.4-.56.84-.28,3.92-.28,7-.28,3.36,0,8.4.84,11.48,1.12,1.96,0,3.92,0,5.88-.28,4.48-.56,8.68.28,12.04,1.96,3.92,1.96,7,5.88,8.96,10.08,3.64,7.28,5.32,15.4,9.8,22.68.28.28.56.84.56,1.12,2.52,8.12,6.72,15.68,9.52,23.8,1.68,5.6,4.76,10.92,7,16.24,2.52,7,5.88,13.44,8.68,20.44,3.36,8.12,6.44,16.52,10.08,24.92,3.92,8.68,7,17.92,11.48,26.88,2.24,4.2,4.2,8.96,6.44,13.44,3.92,7.84,7.84,15.68,12.6,22.96,2.8,4.76,1.4,9.24-2.8,9.52ZM179.98,376.84c-.28-1.96-2.8-1.4-1.96-.28.84,1.4,0,2.52-.56,2.24-.84-.28-.84,1.4.56,1.68,1.4.28,2.24-1.96,1.96-3.64ZM185.86,361.72c-.28-.28-.84-.28-1.12,0-.56.28-.56.84-.56,1.12.56.28,1.96-.56,1.68-1.12ZM185.3,352.2c.84.56,1.4-.56.56-.84-.84-.28-1.4.56-.56.84ZM216.94,345.2c-.56-.84-2.52-1.12-4.48-1.12-1.96-.28-2.24,1.96-1.4,1.68.84-.28.84,1.12-.28,1.68-.56.28-1.4.28-2.24-.28-1.12-.28-1.96-.84-3.08-1.4-1.68-1.12-3.36-1.4-3.64-.84-.56.84.56,2.8,2.52,3.08,1.96.56,2.52,2.8,1.4,3.64-1.12,1.12-2.52.28-3.08-.84-.28-.84-2.24-.84-2.52.28,0,1.12-.56,2.24-1.12,2.52-.56.28-1.4,0-1.4-.56,0-.28-.84,0-1.68.84-.56.56-1.12.56-1.12,0,0-.84-1.96-2.8-3.92-1.68-1.68.84-1.12,1.96,0,1.4,1.4-.84,1.4.28.84,1.4-.56,1.12-1.4,2.24-1.12,2.8.56.56-.28.84-.84,1.12-.28,0-.84-1.12-1.4-1.96-.56-1.12-2.24-1.12-2.52-.28-.56.84.28,2.52,1.4,2.8,1.12,0,2.24.56,1.4,1.68-.56,1.12-.28,2.24-.84,2.52-.56,0-.56.84-.28,1.4,0,.56.84,1.4,1.68,1.4.28,0,.56-.28.84-.56.28-.56.28-1.96.84-1.96.28-.28.56,0,.84.56.28.28.56.84.84,1.4.28.28.56.56.56.84.28.28,1.4-.28,1.12-1.12l-1.12-1.12c-1.4-1.12-1.96-3.36-.84-5.6,1.4-2.24,3.08-3.64,4.2-3.36,1.12,0,2.24.56,2.8-.28.28-.56.84,0,.84.84,0,.56,1.4,0,1.96-.84.56-.56,1.12-.56,1.68-.28.84.56.56,2.24,0,2.8-.28.56-.84.84-1.4.84-.56.28-1.4.56-2.24.56-.56,0-1.12-.56-1.96-.84-.84-.84-2.24.84-1.4,1.4.56.56,1.4,1.68,1.4,2.52s.84,1.68,1.68,2.24c.56.28,2.24-.84,1.4-1.4-1.12-.56-.84-1.68,0-1.68.28,0,.84.56,1.12,1.12.56.84.28,2.52,1.12,2.52.28.28.56,0,1.12-.28,1.4-.56,2.52-.84,2.52-1.4s-1.12-.84-1.4-.56c-.56.28-1.4-.28-1.12-.84.28-.28.56-.56.56-.84s.28-.56.56-.84c.28-.56,2.24-1.96,4.48-3.64,1.96-1.4,3.36-3.36,2.8-3.92-.56-.56,1.12-.84,2.52-1.4s1.96-2.24,1.12-2.52c-.84-.28-.28-1.68.28-1.68.84.28.56-1.12,0-1.96ZM192.58,340.72c.84.28,1.68-1.12,1.96-2.24.56-.84,0-2.24-.84-2.52-.56-.28-1.4.84-1.68,1.96-.28,1.12-.28,2.52.56,2.8ZM194.26,370.4c-.56,0-.84.28-.84.56-.28.56,1.4.84,1.68.28,0-.28-.28-.56-.84-.84ZM199.3,348c.28-1.12-.56-.84-1.12,0-.56.84.84,1.12,1.12,0ZM198.46,326.44c.28.56,1.12,1.12,1.4,1.12s.56,0,.84.28c.84,0,1.68,0,2.52-.28,1.12-.56.56-2.52-.28-2.24-.84.56-1.68.28-1.68-.28.28-.28-.28,0-1.12,0-1.12,0-1.68-.56-1.96.28,0,.28,0,.84.28,1.12ZM200.98,333.72l-.84.84c-.56.28,0,1.12.56.84.28-.28.84.28.84.56s.28.28.84.28c.28-.28.28-1.12.56-2.24.28-1.12-.28-2.24-1.12-2.52-.56-.28-1.68.56-1.4,1.12.28.28.56.56.56,1.12ZM204.62,342.68c.84.56,1.68.56,1.96,0,.28-.84,2.52-1.4,4.76-.84,2.52.56,2.52-.28,1.12-1.68-1.4-1.4-3.64-1.12-4.2-.28-.84.84-1.96,1.4-3.08,1.4s-1.12.84-.56,1.4ZM207.42,317.76c.28.28.56.84.84.84s1.68,0,3.08-.84c1.4-.56,1.4-1.4.28-1.96l-.84-.56c-.56,0-.84.84-1.4,1.12h-1.12c-1.12,0-1.12.84-.84,1.4ZM213.86,320.28c-.84-.84-1.68-.28-1.96.56,0,.56.28,1.96.84,1.96.28,0,.84,0,1.12-.28h.28c0-.28.56-1.4-.28-2.24ZM213.02,314.96c1.4.28,1.96-.56,1.68-1.68,0-1.12-1.4-1.4-1.96-1.12-.84.56-1.12,2.24.28,2.8ZM214.7,309.36c0,.56,1.12.84,1.12.56.28-.28,0-.56-.28-.84-.28-.28-.84,0-.84.28ZM224.22,339.32c0-.84-.84-2.8-1.4-4.48-.56-1.4-.84-2.8-.84-2.8v-1.4c0-.56-.56-1.96-1.4-2.24-1.12-.28-2.24,0-2.52.56-.28.84-1.68,1.12-2.52,1.68-.28.28-.56.84,0,1.68l.84.84c.28.56-.56,1.12-1.12.84-.56-.28-.56,1.12.28,1.4.84.28,1.96-1.12,1.68-2.24-.56-.84-1.12-1.12-.28-1.12.84-.28,1.68.28,1.4,1.68-.28,1.4.84,1.96,1.4,1.68.84-.56,2.24.56,2.52,2.52,0,2.24,1.68,2.52,1.96,1.4ZM215.26,297.88c-.28.84.84,1.4,2.52,1.4,1.4-.28,1.68-1.68.84-1.96-.84,0-1.68-.56-2.24-.56s-.84.56-1.12,1.12ZM216.94,306.56c-.56,0-.56,1.12.28,1.68.56.28,1.4,0,1.68-.56s.28-1.68,0-2.24c-.28-.84-.84-1.96-1.4-2.24-.28-.28-.84-.28-1.12,0-.56,0-1.12,1.12-.56,1.68.28,0,.56.28,1.12.28.84,0,.56,1.68,0,1.4ZM217.22,292.56c1.12.28,2.8.56,2.52-.28,0-.84-1.12-1.68-2.24-1.96-.84,0-1.12,1.68-.28,2.24ZM216.94,281.08c.28,1.12.28,2.52,1.12,1.96.56-.28,0-1.12,0-2.24.28-1.12-.28-1.96-.84-1.96s-.28,1.12-.28,2.24ZM220.3,320.28c.56-.84-.84-1.68-1.4-.84-.56,1.12.84,1.68,1.4.84ZM219.74,269.04c.56.56.84,1.96.56,2.8-.28.84.56,1.4,1.12.28.56-.84.28-2.52.28-3.92-.28-1.4-1.12-1.96-1.96-1.4-.84.56-.56,1.68,0,2.24ZM220.02,287.8c-.56.28.28,1.12,1.4.84.84-.28,1.68.28,1.96,0,.28-.56-.28-1.12-.84-1.12-.84-.28-1.68,0-2.52.28ZM220.58,326.44c1.12.84,2.24,1.4,2.8,1.12.28-.28-.84-1.4-1.96-1.96-1.12-.56-1.96,0-.84.84ZM221.42,346.88c0-.28,0-.84-.56-.84s-.84.28-.56.56c0,.56,1.12.84,1.12.28ZM224.22,325.32c.28-.56-1.12-1.4-1.4-.84-.56.28,1.12,1.4,1.4.84ZM223.38,299.56c.28,1.12,0,2.8-.28,3.92s2.8,0,2.24-2.24c-.84-2.24-2.52-2.8-1.96-1.68ZM225.06,262.6c.84-.84,0-1.68-.84-1.12-1.12.56,0,1.96.84,1.12ZM225.9,334c.28.28.56.56.84.56.28.56.84-.56.56-1.12-.28-.56-.56-.84-.84-1.12-.56-.84,0-1.4.84-1.4.28.28.56-.28.56-.56,0-.56-.84-1.12-1.4-1.12-.28,0-.84,0-.84.56s-1.12.84-1.68,1.68c-.28,1.12.84,1.68,1.96,2.52ZM226.18,349.12c-.84-1.4-1.96,0-1.12.84,1.12,1.12,1.96.28,1.12-.84ZM225.62,265.96c-1.12,0,0,1.68.56,2.8.28.56.28,1.4.28,1.96-.56,1.4-.56,2.24.56,2.52,1.12.28,1.68,1.68,1.96,1.4.56-.28,1.68.84,2.8,1.4,1.12.56,1.4-1.12.84-1.68-.84-.28-1.68-1.4-1.68-2.24-.28-.84,1.12-1.96,2.52-2.52s2.8-1.12,3.92-1.12c1.12-.28.84-2.52-.28-2.8-1.12-.56-3.92-.56-5.04.84-.84,1.4-2.8,2.24-4.48.28-.56-.56-1.4-.84-1.96-.84ZM228.7,339.04c-.56-.28-2.24-1.12-2.8.28-.56,1.4,1.4,1.96,2.8,1.68,1.4-.28.84-1.4,0-1.96ZM229.82,266.52h.56s.28-.84,0-1.4c-.28-.84.28-1.68.56-1.96l.56-.56c1.4,0,2.24,0,3.08.28,1.68.56,2.52-.56.84-1.68-1.96-1.4-2.52-2.8-1.96-3.92.56-.56-.84-.84-1.96-.28-1.4.56-2.24,3.08-2.52,4.48l-.84,2.52c-.28.84.28,2.24,1.68,2.52ZM232.06,346.04c-1.68-1.4-2.8-1.96-2.24-.84.56.84,1.12,2.24.28,1.96-.56,0,0,2.24,1.96,2.52,1.68.28,1.4-2.24,0-3.64ZM231.78,251.96c.28.56.84.28,1.12-.56.28-.28.28-.84.28-1.12-.28-.56-1.4-.56-1.68.28,0,.56,0,1.12.28,1.4ZM234.02,279.68c.56-.28.84-.84.56-1.12,0-.84-1.68-1.4-2.52-.56-.84.56-.56,2.52.56,2.52.56,0,1.12-.56,1.4-.84ZM237.1,272.4c-.28-.28-.84-.56-1.12-.28-.28,0-.56-.28-1.12-.84-.28-.28-.56-.56-1.12-.56s-1.12.28-1.12.56c-.56.84.28,1.96,1.12,1.96,1.12,0,1.68,0,1.96.56.28.84.84,1.96,1.68,1.68.28,0,.28-.28.28-.84s-.28-1.68-.56-2.24ZM278.26,307.4c-4.2-10.92-8.12-22.12-12.6-32.76-2.24-6.16-7.28-12.32-9.8-10.36-1.12.84-1.68,2.52-2.52,4.76-.56,2.24-.84,5.04-2.24,7-1.96,2.8-3.08,5.6-3.92,8.4-2.24,6.16-5.04,12.04-6.44,18.48l-1.12,1.96c-1.68,4.48-3.36,8.68-5.04,13.16-.28.84-.28,1.4,0,2.24,1.12,3.92,5.6,6.72,9.8,6.16,2.8-.28,5.6-.56,8.4-.28,7.56.56,14.84-1.12,22.12,0,.56.28.84,0,1.4,0s2.8-1.68,4.2-3.92c1.4-1.96,0-8.96-2.24-14.84ZM236.54,243.84c-1.12,0-1.68,1.12-1.68,1.68s.28.84.84,1.12c.56,0,1.12-1.4,1.96-1.12.56,0,.84.28,1.4.84,1.12,1.12,1.4,1.96.84,2.52-.84.56-.84,2.52-.56,3.64,0,1.4,1.4.28,2.8.28,1.4-.28,1.4-.84,0-1.4-1.68-.56-2.24-1.68-1.4-1.68.56.28,1.4-.84,1.96-1.4.56-.84-1.68-1.4-2.8-3.36-1.12-1.68.28-4.76-.56-6.16-.56-1.4-1.96-.84-1.68-.28.28.28.28.84-.28,1.12-.28.28-.56.28-1.12,0-.56-.28-.56.56-.84,1.4,0,1.12.28,1.4,1.4,1.4.84-.28.56,1.12-.28,1.4ZM237.66,234.32l.28.28c.28.28,1.12-.28.84-.56,0-.28-.28-.56-.28-.84-.28-.28-.28-.84,0-1.12.56-.28,1.68-.28,1.68-.56s-.28-.56-.56-.56c-.56-.28-1.96.56-2.24,1.4-.28.56-.28,1.12.28,1.96ZM242.7,254.76l-2.8,1.4c-.28,0-.56.28-.84.84,0,.28,0,.56.28.84.28.28,1.12-.28,1.4-.84.28-.56,1.12,0,2.52.28,1.4,0,2.24-.28,1.96-1.12-.28-.56-1.4-1.96-2.52-1.4ZM243.26,227.04c.84-.56-1.12-1.4-1.68-.56-.28.56.84,1.4,1.68.56ZM246.06,237.96c.28.56,1.4.56,1.68.28,0-.28,0-.84-.28-1.12-.28-.56-1.4-.84-1.68-.28,0,.28,0,.56.28,1.12ZM246.9,226.76c.56.28.84.28,1.4.28h.56c.56.28,1.12-.56,1.12-1.68-.28-.84-.28-1.4-.28-2.24-.28-1.96-1.4-2.24-1.4-1.12s-1.12,1.96-1.68,2.52c-.56.28-.28,1.68.28,2.24ZM248.02,248.32c-.28.56.56,1.12,1.12.28.56-.56-.56-1.12-1.12-.28ZM251.94,240.76c.56.84-1.12,1.4-2.24,1.68-1.12.28-.28,1.96.84,1.68,1.4-.28,2.8.56,2.8,1.4v1.12c0,.56-.56.84-.84,1.12-.84.28-.84,1.96.28,3.08.84.84,2.52,0,1.96-.84-.28-.28-.28-.56-.28-.84-.28-.56.28-1.12.84-1.12.28,0,.28.28.56.28l1.4,1.4c.84.56,1.68-.84.56-1.12-1.12-.28-1.96-.28-1.96-.56l.84-.84c.28-.56,0-2.24-.84-3.92-.56-1.68-.28-3.08.28-3.36.56-.28.84-1.12.84-1.96s-1.4-2.52-3.08-2.24c-1.68,0-2.24.56-1.4,1.68.84,1.12.28,1.68-.56,1.68-.84-.28-.84,1.12,0,1.68ZM250.54,347.72c-.84.28-.84,1.68-.28,2.24.28.84.84.56,1.4-.28s-.28-2.24-1.12-1.96ZM253.06,344.08c-.56-.28-1.12,0-1.4.28-.56.56,1.68,1.68,2.24.84.28-.28,0-.56-.84-1.12ZM253.9,227.6c-.28.84.56.84,1.12.56.56-.28,1.4-1.4,1.4-2.52-.28-1.4-1.96-1.12-1.96-.56s.28.84,0,1.12c-.28.56-.56.84-.56,1.4ZM258.66,244.4c1.12,1.4,1.96,1.4,1.68-.84v-2.24c.28-1.12-.56-1.96-1.4-1.68l-.84.84c-.56.84-.84,2.8.56,3.92ZM258.1,235.72c.28.56.56-.56,1.68-.84.84-.56,1.12-1.12.28-1.12-1.12,0-2.24,1.12-1.96,1.96ZM258.66,222c0,1.12,1.68.84,2.52.28.56-.56,2.24.28,2.24,1.4,0,1.4.56,2.8,1.12,2.8.84-.28,1.96.56,2.52,1.4.84,1.12,1.4,1.68,2.52,1.68s.84,1.12.28,1.68c-.28,0-.56.28-.56,1.12-.28.28,0,.56.28,1.12.28.56-.84,2.24-1.96,1.96-1.4-.28-.84,1.12,1.12,1.4,1.96.28,3.08,1.4,3.92,2.52.56,1.12,1.96,2.24,2.8,1.68.84-.28,1.12.28,0,1.12-.84.56-1.4,3.36.84,4.48,1.96,1.12,3.08,3.36,3.92,3.64.56.28,1.4,0,1.68-.84,0-.56,1.68-1.4,3.36-1.68,1.4-.28,2.24.28,1.68.84-.84.56-1.4.84-2.24.56-.84-.28-1.4.56-.84,1.12.28.28-.28.84-.84,1.12-.28.28.28,1.12.84,1.96,0,.28.28.56.56.56.56,0,.56-1.12.84-1.68,0-.56.28-.84.56-1.12.56-.56,1.68.28,3.36,2.24,1.4,1.96,3.92,2.8,3.92,2.24s-.56-.84-1.12-1.4c-.56-.28-1.68-1.12-1.96-1.96-.28-.56-.28-1.12,0-1.68,0-.56-.28-1.12-.84-.84-.28,0-.84-.56-.28-.84.28-.56-.28-1.12-.28-1.12-.28,0-.28-1.96-.28-3.92s-.28-3.08-1.4-2.52c-.84.56-2.52,1.12-3.36.56-.84-.56-2.52-1.12-3.64-.28s-2.24.28-1.96-.28c0-.84-.28-1.12.28-1.12.28-.28.28-.56.28-1.12s-.28-1.68.28-1.68c0,0,.56-.28.84-.28.84,0,1.12,0,.84.84,0,.56.84.56,1.68.28,1.12-.28,1.96.28,1.4.84-.28.28.84,1.68,1.96,1.4,1.12-.28.84-1.12.28-1.96l-1.12-1.12c-.84-.56-2.24-.56-3.08-1.12-.28-.28-.56-.84-.28-1.12.56-1.12,1.68-1.96,2.8-1.96.84-.28.28-1.96-.84-2.8-.84-.56-1.96-.28-1.68.28,0,.84-.56,1.68-1.12,1.96-.56,0-1.12.56-1.12,1.4s-1.12,1.12-1.96.84c-.28,0-.56.28-.84,1.12-.28.84-.28,2.8-1.4,2.8-.28,0-.84-.28-1.12-1.12-1.12-1.68-1.4-3.64-.84-4.48.56-.56.84-1.4.56-1.96-.28-.56.28-1.12,1.12-1.4.28,0,.56-.28.84-.84.28-.56.28-1.12,0-1.4-.28-.84.28-1.68,1.4-1.96.28,0,.56-.28.84-.56.28-.56-.84-1.12-1.4-1.4-.28-.28-.56-.84-1.12-1.12-.56-.84-1.12-1.68-2.24-1.12-.84.56-1.96,0-2.52-.84-.56-.84-1.68-.84-1.96,0,0,.84-1.4,0-2.24.56-.84.84-2.24-.56-1.12-1.12,1.4-.56,1.68-1.4.84-1.68-.84-.28-2.8-.28-3.92,0-1.12.56-1.68,1.68-2.24,1.68-.56-.28-1.4.84-1.4,1.96ZM261.18,346.32c-.28-.56-1.4.28-1.12.56.28.28.56.56.84.28.56-.28.56-.56.28-.84ZM271.82,246.36c.84-.28.84-1.4,0-1.68-.28,0-.84-.28-1.12-.84v-1.12c0-.84-1.4-1.96-2.52-2.52-1.12-.56-2.24-1.12-2.52-1.12,0,0-1.68,0-2.24,1.4-.28,1.4-1.68,2.52-1.68,3.64s1.12,1.4,1.96.84c.56-.28,1.96-.28,3.36,0,1.12,0,2.8,0,3.08,1.12.56.84,1.12.56,1.68.28ZM264.54,250c-.28.56-.56.84-.84,1.12-.56.56.84,1.68,2.24,2.8,1.4,1.12,3.08,1.68,4.48,1.12,1.12-.84.84-.84,1.12-1.96.28-.84-.56-.84-1.96-.56-1.4.28-2.52,0-2.24-.56.28-.56-.28-1.68-.56-2.8-.28-1.12-1.68-1.68-1.4-2.24.28-.56-1.12-.28-1.12,1.12.28.56.28,1.4.28,1.96ZM268.46,345.76c-.28-.28-.84-.56-1.4-.56-1.4,0-3.08.56-2.8,1.4.28.84,1.4.56,2.24.56.56,0,.84.28,1.12.28.84,0,1.4-1.12.84-1.68ZM269.58,339.04c-1.4.84-.84,2.24.84,1.4,1.68-1.12.56-2.24-.84-1.4ZM272.38,259.24c.28,0,.56.28.84.28.28.56.56,1.4,1.12,1.68.28.28.84.28,1.12.56,1.12.56,3.36-.56,4.76-2.24,1.4-1.96,2.52-3.36,3.64-3.08.84.56,1.68.56,1.68.28.28,0-.84-.56-1.68-1.68s-2.52-.56-3.08.56c-.56,1.4-1.96.56-2.52.28-.28-.28-.56-.56-.56-.84l.84-.84c.56-.28-.28-1.12-.84-1.12-.84.28-1.12,1.4-.56,2.24.28.84-.28,1.12-1.12.84-1.12-.28-1.96.56-3.08,1.12-.84.28-1.12,1.68-.56,1.96ZM275.74,343.52c-.28-.28-1.4.56-1.4,1.12-.28.28-.28.84,0,1.12.28.28,1.12-.28,1.4-1.12.28-.56,0-.84,0-1.12ZM275.18,251.4c1.4,0,2.52-.28,2.24-1.12-.28-.84-1.68-1.4-2.52-1.4-.84.28-1.12,2.8.28,2.52ZM286.1,272.96c.56-.28.28-1.12-.28-1.96-.28-.28-.28-.84,0-1.68,0-.28.56,0,1.4-.28.56,0-.28-.56-1.96-.28-1.68.28-3.36-.28-2.8-.84.28-.56-.56-1.4-.84-2.8,0-1.4-.84-1.4-2.24-1.12-1.4.28-1.96,1.68-1.12,2.24,1.12.56,2.52,1.4,2.24,2.24-.28,1.12.28,2.24,1.68,2.52,1.12,0,1.96,0,1.96,1.12.28.84,1.68,1.12,1.96.84ZM278.54,229.56c.28.84,1.4.28,1.4-.28-.28-.84-1.68-.56-1.4.28ZM284.42,259.8l1.12,1.68c.56.56.84.56.84.56.28,0,.28-1.12-.28-1.96-.84-.84-1.68-1.12-1.96-1.12,0,0,0,.56.28.84ZM287.78,332.88c-.84-.84-2.24,0-2.24.28-.28.56.28,1.96,1.4,1.96,1.12-.28,1.68-1.4.84-2.24ZM288.06,258.96c-.28-.56.84-.56,1.4-.28.56,0,1.12-.84.28-1.96-.84-.84-2.52,0-2.8,1.12-.28.84,0,1.12.56,1.96,0,.28.28.28.28.28.28,0,.28-.56.28-1.12ZM289.46,273.8c-1.68.28-1.4,1.4.28,1.4,1.96,0,1.12-1.68-.28-1.4ZM289.46,263.16c1.12.28,1.68-1.12.28-1.12-1.4-.28-1.4,1.12-.28,1.12ZM291.98,268.2c.56-.28,0-1.68-.84-1.4-.56,0-1.12,1.12-.84,1.68.56.56,1.4.28,1.68-.28ZM292.26,349.12q.28,0,.56-.28c.28,0,.56,0,.56-.28.28-.28-.56-1.12-1.4-.56-.28.56-.56.84-.56,1.68-.28.84,0,1.96,1.4,1.96h.28c0-.28.28-.56,0-.84,0,0,0-.28-.28-.28-.28-.28-.56-1.12-.56-1.4ZM291.42,338.76c-.28.84,1.12,1.12,1.12,0,.28-.84-.84-1.12-1.12,0ZM295.06,300.4c-.28-.56,0-2.24.84-3.36,1.12-1.12,1.68-2.8,1.96-4.48.28-.56.28-1.12,0-1.68,0-.56-1.12-.84-1.4-1.12v-.56c0-.56-.56-1.4-1.12-1.68-.56,0-1.96.56-2.24,1.4,0,.84,1.12,1.96,1.96,2.52.56.56.84,1.68.56,1.96-.28.28-.84,0-1.12-.56-.28-.56-1.4,1.12-.84,3.08,0,.56,0,1.12.28,1.4,0,.84-1.12.56-1.4,1.4-.28.28-.28.84.28,1.12.84,1.12,2.24,1.12,2.24.56ZM293.38,258.12c-.56.28-.84,1.4-.56,2.24.28.56.56.28,1.12-.56.28-.84.28-1.96-.56-1.68ZM297.02,311.6c0-.56-.56-1.4-1.12-1.12-.28,0-.84.28-.84.56s0,.56.28.84c.28.56.56.56,1.12.28.28,0,.28-.28.56-.56ZM295.9,303.76c-.84.56-.28,1.4.56.56.84-.84,0-1.4-.56-.56ZM295.62,261.48s.28.28.84,0c.56,0,.56-.56.56-.84-.56-.56-1.96.28-1.4.84ZM297.02,275.76c-.28,1.4,1.68,1.12,1.96-.28.28-1.4-.28-2.24-1.12-1.96-.84,0-.84,1.12-.84,2.24ZM299.54,349.68c-.56-.56-2.24-.56-2.52.28,0,.28,0,.84.28,1.4.84,1.12.84,1.4,1.12.56,0-.84.84-1.12,1.4-1.12.28,0,.28-.56-.28-1.12ZM298.14,284.72c-1.12.56.28,1.4,1.12,2.24.84.56,1.12.28.84-.56-.28-1.12-1.12-1.96-1.96-1.68ZM303.18,333.72c-.28-.84-1.4-1.12-1.96-.84-.28,0-.84,0-1.4-.28-.84-.28-2.24.28-1.4,1.12.28.28.84.56,1.68.56,2.24-.28,3.64,0,3.08-.56ZM300.38,299c-.84,0-1.4.84-.28,1.4,1.12.56,1.96,1.12,1.12,1.4-.56,0-1.12,1.68-1.12,2.8,0,1.4.56,2.24.84,1.68.56-.56,1.68.28,2.8.56s1.12-1.12.56-1.68c-.56-.28-.28-1.68-.28-3.08,0-.56,0-1.12-.28-1.68-.28-.84-1.68-1.4-1.12-1.68,0-.28.28-.28.56-.56,1.12-.28.56-1.12-.28-1.12h-1.12c-.28.28-.28,1.12-.56,1.68-.28,0-.56.28-.84.28ZM302.06,347.16c-.56-.56-1.4.56-.84,1.12.28.28.84.56,1.12,0s0-1.12-.28-1.12ZM302.62,322.24c.84.56,1.12-.28,0-1.4-.28-.28-.56-.84-.84-.84-.56-.56-.84.56-.28,1.4l1.12.84ZM302.34,278.84c1.4,1.12,1.96.56.56-.56-1.4-.84-1.68-.56-.56.56ZM302.34,327.84c.56.84,2.24,1.68,3.08,1.4.84-.28,1.4-.56,1.4-.84.28-.56-.28-1.12-1.12-.84-.28.28-.84.56-1.4.28-.84,0-1.12-.84-.84-1.68,0-1.12-.56-1.4-1.12-.28-.28.56-.28,1.12,0,1.96ZM308.78,314.96c-1.96-.56-4.2-.56-4.76-1.12-.84-.28-1.12,0-.56.84.28.84.28,2.52,0,3.36,0,1.12,1.12,1.4,1.4.56.28-.56,1.12-1.4,2.24-1.96.84-.28,1.96,0,2.52,1.12.84.84,1.12,1.68,1.96,1.12.28-.56.28-.84,0-1.68-.56-1.12-1.4-1.96-2.8-2.24ZM305.14,308.8c-.28.28-.56.28-.84.28-.56,0-.28,1.4,0,2.8,0,1.12.84-1.12,2.8-3.08,2.24-2.24,3.08-3.08,1.4-2.52-.56.28-1.12.56-1.4.84-1.12.28-1.68,1.4-1.96,1.68ZM305.42,349.12c-1.12-.28-1.68,2.52-.28,2.24,1.4,0,1.4-1.96.28-2.24ZM309.06,336.52c.28-.56,1.4-1.4,2.52-1.96.56-.56,1.12-1.12,1.12-1.68s-.28-1.12-.84-1.68c-.56-.28-.84-.28-1.12-.56-.84-.28-.84-1.4-.28-1.96.84-.28,1.96-.28,2.8,0,.84.56,1.68,0,1.96-.56,0-.28-.28-.84-1.12-1.12-.56-.28-1.96-.56-2.24-1.12-.28-.28-.28-.56,0-.84.84-.84-.28-.84-1.12-1.12-1.12,0-1.68.28-1.4,1.12.56.84.56,2.24,0,3.64-.84,1.12.56,2.8,1.12,2.52.84,0,0,1.96-2.24,3.64-2.24,1.68-3.92,2.24-3.36,3.36.56.84,1.12.84,1.96.28.84-.84,1.96-.28,2.8.28.84.56,1.68.28,1.68-.56s-.84-1.12-1.68-.84c-.28.28-.56-.28-.56-.84ZM312.42,344.64c.56.56,1.96.28,2.52-.84,0-.28,0-1.12-.28-1.68-.56-.84-1.4-1.4-2.24-1.12-.84.28-.84,1.12-.28,1.12.28,0,.56-.28.56.28.28.56,0,.84-.28,1.12-.56.28-.28.84,0,1.12ZM313.82,353.6c.56,0,.84.28,1.12.84,0,.84-.28,2.52.28,2.8.56,0,1.12-.28,1.4-.84.28-.56,0-1.4-.28-2.24-.56-.84-1.12-2.52-1.68-2.52-.56-.28-.84-.28-1.4,0-.84.28-.28,1.96.56,1.96ZM315.22,365.08c-.56.28-1.12.84-1.4,1.12-.56.84.28,1.68,1.12,1.12.28-.28.84-.84,1.4-1.12,1.4-1.12.28-2.24-1.12-1.12ZM318.58,339.04c1.4.84,1.96.28,1.4-.56-.84-.84-1.96-1.68-2.52-1.4-.84,0,0,.84,1.12,1.96ZM322.22,344.64c1.4-1.4,1.68-2.52,1.96-3.92.28-1.12.56-2.24,0-2.24-.56.28-1.12,1.12-1.4,2.24-.28.84-1.68,1.4-2.52,1.4-.56,0-.84.28-1.12.28-.56.56-.56,1.4,0,1.68.28,0,1.4.28,1.12,1.12,0,.28-.28.56-.56.84-1.12.56-1.96,1.68-2.24,2.52-.28.56-.28,1.4.28,1.4.28,0,.84,0,.84-.28.28-.28,0-1.12.28-1.68.28-.28.56-.56.84-.56.28.28,1.12-1.12,2.52-2.8ZM322.78,368.16c.84-.56-.28-1.96-.84-1.12-.56.56.28,1.96.84,1.12ZM324.18,357.52c-.56-1.4-1.12-1.68-1.4-1.12-.56.56-.56,1.4-.28,1.96.56.56,1.96.28,1.68-.84ZM325.58,376c-.56,0-.84.84-1.4,1.68-.56,1.12-1.4,2.52-1.4,3.36.28.84.84,1.12,1.4.56.84-.84.84-2.24,1.4-3.08.28-1.12.28-2.24,0-2.52ZM326.42,355.28c-.28-.28-.56-.56-.84-.28-.28.28.28,1.4,1.12,1.68.28.28.84.28,1.12,0,.28-.56-.84-.56-1.4-1.4ZM327.82,343.8c-.56-.56-1.4-.28-.84.84s1.68,0,.84-.84ZM329.22,362.28c.56-.84,0-1.68-.84-.56-.56,1.12.28,1.68.84.56ZM335.94,374.32l-.84-.84c-1.12-1.4-1.96-1.68-1.68-2.24.56-.56-.56-1.96-.28-3.64,0-1.4-1.4-1.96-1.68-1.4-.28.84,0,2.24.56,3.36s-.28,1.12-1.68.84c-1.4-.28-1.68.84-.84.84.84.28,1.68,2.52,3.08,3.64.56.56,1.12.84,1.96.84,1.12.28,1.96-.84,1.4-1.4ZM329.78,376.84c-1.12.28-.84,1.68,0,1.96,1.12.28,1.4-1.96,0-1.96Z"/>
  <path class="cls-1" d="M531.66,360.88c-2.52,4.76-3.64,10.64-7.56,14.28-6.16,5.88-12.04,12.32-20.44,15.96-7.28,3.08-14.84,5.88-22.68,7.56-8.68,1.68-17.36,1.96-26.04,1.96h-3.08c-1.68,0-3.08.84-3.36.84s-1.12-.56-1.68-.56c-.28-.28-.56-.28-1.12-.28-8.68-.28-17.36-2.8-26.04-4.48-6.72-1.68-13.44-4.2-19.88-7-5.88-2.8-11.76-5.6-17.36-8.68-3.08-1.96-5.6-3.92-7.56-6.44-3.64-4.2-3.92-9.52-3.92-10.36,0-.56.56-1.68.84-2.24,0-.56.28-.84.28-1.12,1.68-3.08,2.8-6.72,4.76-9.52,2.24-3.36,4.2-7,5.6-10.92.56-1.96,1.4-3.64,2.24-5.32,1.68-2.8,6.44-6.72,10.08-5.88,1.96.56,3.92,1.96,5.88,3.64,2.8,3.08,6.16,5.6,9.24,8.4,5.32,4.76,11.76,8.12,18.2,11.48,5.32,3.08,10.92,5.04,17.08,6.16,7.28,1.4,14.28,1.4,21.84.28,5.04-.56,8.96-2.52,12.04-6.44,4.76-6.44,4.76-11.48.56-17.08-2.8-3.36-6.16-5.6-10.08-7-8.68-3.36-17.36-6.72-26.6-8.12-3.08-.56-5.32-2.8-8.4-3.36-2.24-.28-4.76,0-7.28-.84-8.96-3.36-17.64-7-25.48-12.6-1.12-1.12-2.52-1.96-4.2-2.8-2.52-.84-4.48-2.52-6.16-4.76-7.84-11.76-13.16-24.08-11.2-38.64.56-5.04,1.12-10.36,3.08-15.12,2.52-7,6.44-13.72,12.32-18.76,1.12-.84,1.96-1.4,2.8-2.24,4.2-3.92,8.4-7.56,14.28-8.96,1.68-.56,3.08-1.68,4.76-2.52,1.68-.84,3.08-1.68,5.04-1.96,3.64-.56,7.28-1.12,10.64-2.24,4.48-1.4,9.24-2.24,14-2.52,1.68,0,3.36.28,5.04,0,2.8,0,5.04-.84,5.32-.84l2.24.56h1.68c11.2.84,22.4,1.68,33.32,5.04,9.24,2.52,18.2,5.6,26.88,9.24,8.4,3.64,12.88,12.32,7,21-1.96,3.08-3.92,6.44-4.76,10.08-.84,3.36-2.24,6.16-3.92,8.96-2.8,5.04-8.4,10.92-12.6,9.52-2.24-.56-4.2-1.96-6.72-4.76-4.2-4.76-10.08-7.56-15.68-10.64-7.28-4.2-15.68-5.32-24.08-6.72-7.84-1.68-15.68-1.12-22.96,3.64-4.76,3.08-6.72,10.08-3.64,14.84,4.48,6.16,9.8,11.48,17.92,12.6,1.12,0,2.24.56,3.08.84,3.36,1.68,7,3.08,10.64,3.64,9.52,1.68,18.48,5.6,27.72,8.68,5.88,1.68,11.2,4.76,16.24,8.4,7,4.76,13.16,9.52,18.2,16.52,5.32,7.84,6.72,16.24,7.28,25.2.56,7.56,0,15.4-3.64,22.4ZM400.06,356.12c-.84-1.12-2.52-1.4-3.08-.84-.56.56-1.12,1.68-.56,2.24.28.56.56,1.12.28,1.68-.28.28-.84.84-1.4.84-.56.28-1.12-.84-1.12-1.96s-1.12-.28-1.96,1.68c-.84,2.24,0,4.2.28,3.36.28-1.12,1.12-1.12,1.68-.56.28.56,1.12.56,1.68.56.56-.28,1.12-1.12,1.12-1.96-.28-.84.84-.56,2.24-1.12,1.4-.84,1.96-2.52.84-3.92ZM391.94,267.64c-.28.28.56.56.56.28.28-.28-.56-.56-.56-.28ZM394.46,367.04c-1.4-.84-1.96-.28-.84.84,1.12.84,1.96-.28.84-.84ZM399.5,264.84c-.84.28-2.24.56-2.8-.56-.56-1.12-1.96-.28-1.68.28.56.28.28.84-.28,1.12-.28.28.28,1.12.84,1.68.56.56,1.4,1.12,1.96.84.28-.28.84,1.12,1.12,1.96.28,1.12,1.4.84,1.4-.56s0-2.8.28-3.08c.56-.56,0-2.24-.84-1.68ZM416.86,285.84c1.96-.28,3.64.84,4.2,1.4.56.56,1.12,0,.84-.56-.28-.56-.84-.84-1.12-.84s-.84-.28-.84-.84c-.28-.84,0-1.4.84-1.68.56,0,1.4.56,1.12,1.4-.28.56,1.68.28,2.8-1.68,1.12-2.24-1.12-4.48-1.96-4.2-.56.28-.28-1.12,1.12-1.68,1.68-.84,2.8-1.68,3.64-1.4.84,0,.56-1.4,0-1.68-.56-.28-1.68-1.12-1.68-1.96,0-.56-.28-.84-.84-1.12s-.84-.28-1.12.28c-.28.56-1.12.84-1.4.56-.28-.28-.56-.84-.56-1.12-.28-.84,1.12-.84,1.12-1.68s-1.4-.84-.56-1.68c.28-.28.56-.28,1.12-.28s-.56-1.12-1.68-2.52c-.56-.84-.84-1.96-.84-3.08q0-.28-.28-.28c-.28,0-.28-1.68-.28-3.64.28-1.96.84-3.64,1.4-4.2.56-.28,0-1.12-1.4-.56-1.12.56-1.12-.56-.28-1.12,1.12-.56,1.68-2.24,1.12-3.92-.56-1.68.28-3.36,1.68-3.08,1.12.56,1.4,0,.84-.56-.84-.56-.28-2.24,0-3.08.56-1.12,1.12-1.68,1.96-1.12.84.56,1.96.28,2.8,0,.84,0,.84-1.96.84-3.64.28-1.68-.56-3.08-.84-3.36-.28-.56-.84,0-.84.56-.28.56-1.12.56-1.68-.28-.56-1.12-1.68-1.12-1.4-1.68.28-.84-1.12-1.12-1.4-.84-.56.28-1.12,1.4-1.4,2.24,0,1.12,0,2.24-.84,2.8-.56.28-1.12-.84-1.68-1.4-.84-.84-2.24-1.4-3.36-1.4s-2.24.84-1.68,1.12c.56.56.56,1.68,0,1.96-.56.56-.56,1.4-.28,1.68s.28,1.12.56,1.96c.56,1.12.84,2.24,1.4,2.52.56,0,.84,1.12.56,1.96-.28,1.12-1.4,1.4-1.68.56-.28-1.12-1.96-2.8-2.52-4.48-.56-1.96-1.12-2.8-.84-3.64.28-.84-.84-1.96-1.68-1.96-1.12,0-1.12,1.12-1.12,1.96.28,1.12,1.68,1.96,2.24,3.08.56.84,1.12,2.52,1.68,3.92.56,1.12,0,3.08,0,4.2-.28,1.12-1.12,2.24-.56,2.8.28.56-.84,1.68-1.68.84-.56-.56-2.24-.84-3.36-.28-.84.28-.56,1.4.28,2.24.56.56,1.4,1.12,2.24,1.68,1.12.56.84,1.4-.28,2.52s-2.52.56-2.8-.28c0-.56-2.24-2.52-1.96-4.76.28-2.52.84-4.76,0-5.04-.84-.28-1.96,1.68-1.96,4.2.28,2.52,0,4.2-.84,3.64-.84-.56-1.96,0-1.68.56,0,.56-1.68.56-1.68-.28s-.56-1.68-1.4-1.4c-.84.28-1.96,1.12-1.96,2.52-.28,1.12,1.68,3.08,3.36,4.48,1.4,1.12,2.8.56,3.36-.56.56-1.12,2.8-.84,3.36,1.4.28,2.24,1.68,3.36.56,3.92-1.12.56-2.52,1.96-2.8,3.36,0,1.4,1.96,1.12,4.2.56,1.96-.56,3.08,0,3.92,1.4.84,1.12,2.8,1.4,3.92,2.52,1.4,1.4,3.64,1.68,5.04,1.12,1.68-.28,2.52.56,1.4.84-.84.28-1.68.56-1.96,1.12-.28.28,0,.84,0,1.12.28.28-1.12,1.96-3.36,2.52s-3.64,1.4-3.64.56c0-.56-.84-1.12-1.4-.56-.28.28.28,2.24,1.12,4.2.56,1.68,3.08,1.4,4.76,1.12ZM396.98,257.84c-.56.56-1.4,0-1.12-.56.28-.84,1.68,0,1.12.56ZM397.82,251.4c1.4,1.4,3.36.84,2.52.28-.56-.28-.84-1.12-.84-1.4,0-.56-.28-.84-.84-1.12-.28,0-.56,0-.84-.28-.28,0-.56-.28-.84-.56-.28-.28-.84,1.96.84,3.08ZM397.82,275.48c-.56-.28-1.4.84-.56,1.12.84.28,1.12-.84.56-1.12ZM399.22,367.04c-.56-.56-2.24.56-1.96,1.68,0,1.12,1.4,1.4,1.96.84.56-.56.56-1.96,0-2.52ZM399.22,372.92c0-.28-.56,0-.56.56.28.28.84-.28.56-.56ZM399.22,259.24c-.56,0-.56-.84-.28-.84.56,0,.56.56.28.84ZM399.5,273.24c-.28.28,0,.84.56.56.28,0,0-.84-.56-.56ZM400.06,362.84c-.84.28-.56.84.28.56.56-.28.28-1.12-.28-.56ZM400.62,247.48c.28-.28-.28-.56-.56-.28-.28.28.28.56.56.28ZM401.74,355.56c.56-.28,0-1.4-.56-1.12-.56.28,0,1.12.56,1.12ZM403.42,365.64c-1.4-.56-2.24.56-1.4,1.4,1.12,1.12,2.52-.56,1.4-1.4ZM402.58,371.52c-.28-.28-.84,0-.84,0,0,.28,0,.84.28.84.56.28,1.12-.56.56-.84ZM403.7,263.16c0-1.12-.84-1.12-1.4-.84-.28.28-.84,1.12-.28,1.68.28.56,1.68,0,1.68-.84ZM404.54,245.24c1.12.84,2.24.84,2.24.56.28-.28-.56-1.12-1.68-1.68s-2.52-.84-2.8-.28c-.28.56,1.12.84,2.24,1.4ZM402.86,267.08c.28,0,.56-.56,0-.84-.28,0-.56.84,0,.84ZM403.42,276.88q0-.28-.28-.28h-.28c-.28,0-.28.56,0,.56h.28c.28,0,.28-.28.28-.28ZM403.98,272.96c0-.56-1.12-.84-1.12-.28-.28.56,1.12.84,1.12.28ZM405.1,362c-.28-1.12.84-2.24,1.68-2.8.84-.56,0-.84-1.4-.84-1.4.28-1.96.84-2.24,1.96,0,.84.56,2.24,1.4,2.8.56.56.84,0,.56-1.12ZM406.22,268.76c-1.12.28-1.96-1.12-.84-1.68s1.68,1.4.84,1.68ZM406.5,276.88s0-.28.28-.28v-.84c0-.28-.84,0-1.12.56-.28.28.56.84.84.56ZM405.94,260.64c-.28-.28.28-.56.56-.28,0,.28-.56.56-.56.28ZM406.78,281.36c.84,1.68,2.24,2.8,2.52,1.96.28-.56.28-1.12,0-1.68,0-.84.28-1.68,0-2.52-.28-1.4-2.24-.84-3.08-.56-.56.56,0,1.4.56,2.8ZM407.62,367.88c.28-1.12-.56-1.4-.84-.56,0,1.12.56,1.68.84.56ZM408.74,273.24c0-.84-.84-.84-1.4,0-.28.84,1.4.56,1.4,0ZM409.86,286.4c-.56-1.4-1.68-1.68-1.68-.84l-.28,1.12c-.28.84-.28,1.68,0,2.24.84.84,2.52-.84,1.96-2.52ZM409.02,246.92c1.12.56,2.24-.28,1.4-1.68-.56-1.12-1.12-1.4-1.68-.56-.56.84-1.12,1.68.28,2.24ZM409.58,260.92c.56.56.28,1.4-.28,1.12-.84,0-1.12-.28-1.12-.56,0-.56.84-.84,1.4-.56ZM408.74,262.88c.28.56-.56.84-.56.28s0-.84.56-.28ZM411.54,363.4c1.4-.28,2.52-.28,2.52-.56.28-.28-.28-1.4-1.4-1.68s-2.52,0-2.8-.84c-.56-.84-1.68.28-1.68,1.4,0,1.4,1.96,1.68,3.36,1.68ZM410.14,376c0-.56-1.12-.28-.84.28,0,.56,1.12.28.84-.28ZM410.14,378.52c-.84,0-.84.56,0,.84.84,0,.84-.84,0-.84ZM412.94,274.08c-.56-.28-1.12-.84-1.96-1.12-.56,0-.56,1.96.56,2.24,1.12.28,1.68-.84,1.4-1.12ZM411.26,254.48c-.84-.84,0-1.68,1.12-.84.84.84,1.12,1.96.28,1.96-.56.28-.84-.56-1.4-1.12ZM412.38,267.36c-.56,0-1.12-.84-.84-1.12q0-.28.28-.56c.84,0,1.12.28,1.12.56.56.56,0,1.12-.56,1.12ZM412.1,367.04c-.84.28-.84,1.12,0,1.12.84.28,1.68,0,1.68-.56,0-.28-.84-1.12-1.68-.56ZM412.1,230.12c.28,0-.28-.56-.56-.28,0,.28.28.56.56.28ZM412.94,372.92c.28-.56.56-1.4,0-1.68-.56-.28-1.4.28-1.4.84s.84,1.12,1.4.84ZM412.66,256.44c.84-.28,2.24-.56,3.08.28,1.12.84.84,1.96,0,2.52-.84.28-1.4.28-1.4-.28-.28-.28-.84-1.12-1.68-1.12-.56,0-.56-.84,0-1.4ZM413.5,375.16c0-.28-.84-.56-1.12,0-.28.28,0,.56.28.56.28.28.84,0,.84-.56ZM414.06,263.44c-.84.28-1.68-.56-1.4-1.96.56-1.12,1.96-.84,2.24,0,0,1.12,0,1.96-.84,1.96ZM413.78,278.84c1.4,0,1.4-1.4,0-1.4-1.4-.28-1.4,1.68,0,1.4ZM416.86,290.04c-.28-.56-1.96-1.12-2.8-1.4-.84,0-1.4.84-1.12,1.96.28,1.12.84,1.68.84,1.4.28-.56.84-.28,1.68,0,.56.28,1.68-1.12,1.4-1.96ZM420.5,268.76c-.56,1.12-1.68,2.52-1.12,3.08.56.56,0,1.96-.56,2.24s-2.24-1.12-3.64-2.52c-1.68-1.4-2.52-2.8-1.96-2.52.56.28,1.4.28,1.68-.28,0-.28.84-.56.84.28.28.84,1.68.84,2.8-.28,1.4-.84,2.52-.84,1.96,0ZM414.34,377.4c-.28-.84-1.12-.56-1.12.28.28,1.12,1.12.56,1.12-.28ZM413.78,246.64c-.28-.28,0-.56.28-.56.28.28,0,.84-.28.56ZM414.06,266.52c.56-.56,1.68-1.12,2.52-.84.84.28.28,1.4-.56,1.4s-1.4.56-1.68.56c-.56-.28-.56-.56-.28-1.12ZM415.46,365.92c-.28-.28-.84-.56-1.4,0-.28.28.28,1.12.84,1.12s.56-.84.56-1.12ZM415.46,363.96c-.84-.28-1.12,0-.84.28.28.56.84.84,1.4.56.28-.28.28-.56-.56-.84ZM416.02,237.12c-.84.56-1.4,0-.84-.56.56-.56,1.4,0,.84.56ZM415.18,229.84c.28.84.56.84,1.12.56.56,0,.84-.84,0-1.4-.56-.28-1.12.28-1.12.84ZM415.74,253.36c-.84-1.4-.28-2.8.28-2.24.28.28.56.56,1.12.56.28-.28.28-.56.28-.84,0-.56,1.12-.28,1.12.56,0,.56-1.4,1.68-1.12,2.8.28,1.12-1.12.84-1.68-.84ZM416.02,263.72c-.56,0-.28-.56,0-.56s.28.84,0,.56ZM417.42,295.64c.28-.84-1.4-1.12-1.4-.28s1.12,1.12,1.4.28ZM416.86,377.12c-.56.56.56,1.4,1.12.56.56-.84-.84-1.4-1.12-.56ZM417.42,245.24c.56-.28.84,1.12,0,1.12-.84.28-.84-.84,0-1.12ZM426.1,370.96c1.68-.84,1.68-2.8-.28-3.36-1.68-.84-3.08.56-3.64,1.4-.28.56-1.4,1.4-1.4,1.96.28.84-1.4.56-1.96-.56-.56-1.12-.84-2.24-1.4-1.68-.28.28-.28.84-.28,1.4.28,1.12.84,1.96,1.68,2.52,1.4,1.12,2.8,1.68,1.96,1.68-.56.28-.28,1.4.28,1.96.56.28,2.52-1.12,1.96-2.8-.84-1.68,1.4-1.4,3.08-2.52ZM417.98,283.6c.84,0,1.12,1.4,0,1.12-.84-.28-1.12-.84,0-1.12ZM417.7,365.08c.28.28.84,0,1.12-.28.28-.28.56-.84.56-1.4-.56-.56-1.4-.56-1.68,0-.56.56-.56,1.68,0,1.68ZM417.7,231.52c0,.84.56,1.12,1.12.56.56-.28.56-.84.28-1.4-.28-.28-.84-.56-1.12-.56s-.56.56-.28,1.4ZM418.54,248.88c-.56-.28-.28-.56.28-.28.56,0,0,.84-.28.28ZM418.82,261.2c.56-.28,1.12.56.56,1.12-.56.56-1.12-.84-.56-1.12ZM419.1,287.8c.28,0,0-.56-.28-.56s0,.84.28.56ZM423.58,297.04c-.84-.28-1.68-1.12-1.68-1.96.28-.84-1.4-2.52-2.52-1.68-1.12.56,0,2.24.28,1.68.28-.28.56,1.12.84,2.24.28,1.4,2.24,1.96,2.8,1.4.84-.84.84-1.68.28-1.68ZM420.22,237.4c.84-.28,1.68,0,1.96,0,0,.28-.56.56-1.4.84-.84.28-1.4-.56-.56-.84ZM421.34,227.32c1.12-1.96.56-2.24-.56-.56-1.4,1.68-.28,2.52.56.56ZM421.62,241.6c.28.28-.28.84-.56.56s.28-.84.56-.56ZM423.3,288.92c.28-.56.84-1.12.84-1.68-.28-.56-1.12-.56-1.4-.28-.28.28-.28,1.68-1.12,1.96-.84.28-.84,1.68.84,2.8,1.4.84,2.8,0,1.96-.56-.84-.56-1.4-1.68-1.12-2.24ZM421.62,230.68c.28.28.84,0,.56-.28,0-.56-.84-.28-.56.28ZM422.18,378.52c-.56,0-.28.84,0,.84.56,0,.56-.84,0-.84ZM424.14,228.44c.56-.28,1.68-.28,1.96.28,0,.56.28.84.56.56.56,0,1.12-.28,1.4-.56.56-.56,3.36-1.12,5.88,0s5.04,1.96,5.6,2.52c.28.28,1.4,0,2.24-.56.56-.56,1.12-1.12.56-1.68-.56-.84-1.12-2.52-1.12-4.2,0-1.96,1.4-3.36,1.96-3.08.56.28,1.4,1.12,1.96.56.28-.84.84-1.12,1.12-1.12.28.28.28-.28,0-1.12,0-.56-.28-1.12-.56-1.4-.56-.56-.84-.56-1.4-.28-.56.56-1.12.28-1.12-.28-.28-.56-.84-1.12-1.4-1.12-.28,0-.56.28-.56.28-.28.56,0,1.12,0,1.68.28.56-1.12,1.4-1.96.84-1.12-.28-2.24.28-2.24.84s-.84.56-1.68.28c-1.12,0-2.52-.28-3.08.28-.56.56-.56,1.12,0,.84.28,0,.56,0,.84-.28l.28.28c.28.28,0,.84-.56,1.12-.84.56-1.68.56-1.68.28,0-.56-.28-.56-1.12-.28-.56.28-1.4.84-1.96,1.68-.56.56-1.4,1.12-1.96.84-.56-.28-1.4.84-2.24,1.4-1.12.56-.28,1.96.28,1.4ZM423.86,380.48c-.56.28-.28.84.28.56.84-.28.56-1.12-.28-.56ZM424.42,293.68c-.28.56.56,1.12.84.28.56-.56-.28-.84-.84-.28ZM424.7,374.04c.28.56,1.12.28.84-.28,0-.28-.84,0-.84.28ZM457.46,295.36c0-.56-1.12-1.12-1.68-1.4-.84-.28-2.24-.56-2.52-.28-.56.56-1.68.84-2.8.56-1.12-.56-2.24-1.68-1.68-2.24.28-.84-.28-1.4-1.4-1.4-1.4.28-2.8.28-3.36,1.68-.84,1.12-2.24.28-3.08-.56-.56-1.12.28-1.96.84-1.4.56.56,1.96,0,1.96-.56,0-.84-.84-1.4-1.4-1.4-.84,0-1.96-1.12-1.96-2.24s-3.08-1.96-5.04-3.64c-2.24-1.4-3.36-3.92-3.64-3.36-.56.56-.28,1.12,0,1.4.28,0,.84,1.4,1.68,3.08.84,1.96,0,2.8-.84,1.96-.28-.56-.84-1.4-1.68-1.4-.56,0-1.12.28-1.68.28-.84.28-1.68.56-2.24,1.4-.56.84-.56,1.96-.56,2.52.28.56-.28.84-.84.56-.84-.28-1.12.56,0,1.4,1.12.84,1.68,2.52,2.52,2.8.84.56-.28.84-1.68,1.96-1.12,1.12-.28,2.8-.56,4.2,0,1.12-.28,1.68.56,1.68,1.12,0,2.24,0,2.8.56.56.56,1.12,1.12,1.68.56.56-.56,1.96-.56,2.24,0,.28.84,1.12,1.12,1.4.56,0-.56.84-1.12,1.4-.56.56.28,1.12-.28,1.12-1.12,0-.56.28-.84.56-.84.56,0,1.12.28.84.84,0,.28.56.84,1.4.84.56,0,1.12.28,1.12.56s.84.56,1.12,0c.56-.28,1.12.28,1.12.84s1.12.56,1.96,0c.56-.28.84-1.12.84-1.4s.84-.84,2.24-.84c1.12.28,1.96.56,2.24.28.28-.28,0-.84,0-1.12-.28-.56.84-1.4,1.4-2.24.84-.84,1.96-1.68,3.08-1.68s2.24,0,2.52-.84ZM426.94,379.64c1.12-.56,2.24,0,2.52-.56.28-.28-.84-1.4-2.24-1.68-1.4-.56-2.24-.28-2.24.84-.28,1.4,1.12,1.68,1.96,1.4ZM427.22,282.2c-1.68,1.68-1.68,3.08-1.12,2.8.84-.56,1.96-1.68,3.08-2.52,1.4-.84-.28-1.68-1.96-.28ZM426.1,237.12c-.28-.56.84-.28.84.28s-.56.56-.84-.28ZM427.22,235.44c.28-.56,1.12-.28.84,0-.56.56-.84.28-.84,0ZM427.5,223.12c.56.28.84-.28.56-.84-.56-.56-1.12.28-.56.84ZM430.58,289.76c-.56-.84-2.24-1.12-1.96,0,.28,1.12-.28,1.68-.84.84-.28-.56-.56-1.68,0-2.8.56-.84,1.68-1.68,2.52-1.4.56.28.84,1.4.84,2.52-.28,1.12,0,1.4-.56.84ZM433.94,375.16c-.56-.28-1.4-.28-1.96,0s-1.96.56-3.08.28c-1.12,0-1.4.28-.28,1.12.84.84,1.96.56,3.36.28,1.68-.28,2.52-1.4,1.96-1.68ZM428.62,297.32c-.84,0-.84-.56,0-.84.56,0,.84,1.12,0,.84ZM429.18,372.36c.56-.84-.56-1.12-.56-.56-.28.84.28,1.12.56.56ZM430.86,232.36c.84-.56.84-1.96,0-1.68-.56.28-1.4.84-1.4,1.4-.28.84.56,1.12,1.4.28ZM430.02,382.16c-.56-.56-.84.28-.28.56.56.56,1.12-.28.28-.56ZM430.02,276.6c.28,0,0-.56-.28-.56-.28.28,0,.84.28.56ZM430.3,293.12c-.84-.56-.28-1.12.56-.84.84,0,.28,1.12-.56.84ZM430.86,234.88c0,.56.84.56.84,0-.28-.56-1.12-.56-.84,0ZM431.7,296.48c.56.84,0,1.4-.56.56-.56-1.12.28-1.12.56-.56ZM432.82,383.84c0-.28-.56-.84-1.12-.84-.56.28-.56.84-.28,1.12.28,0,.56.28.84,0,.28,0,.28-.28.56-.28ZM434.22,379.36c0-.84-.84-1.4-1.4-1.12-.84,0-1.12,1.12-.56,1.68.56.56,1.68,0,1.96-.56ZM435.34,290.32c-1.12.28-1.68-.28-.56-.84.84-.56,1.68.56.56.84ZM434.78,226.76c-.84-1.12.28-2.52,1.12-1.12.56,1.4,0,2.24-1.12,1.12ZM435.34,233.76c-.56,0-.84.56-.84.56,0,.28,0,.56.56.84.28,0,.56-.28.56-.56,0,0,0-.56-.28-.84ZM437.3,376.56c.56-.84-.28-1.96-1.12-1.4-.84.28-1.12,1.4-.84,2.24.56.56,1.4,0,1.96-.84ZM438.7,295.92c-.84.28-1.96,0-2.52-.84-.28-1.12,0-1.68.84-1.96.84,0,1.68.28,1.4.56-.28.56.28.84.84.84.56-.28.56,1.12-.56,1.4ZM436.74,287.24q-.28-.28-.28-.56h.84q0,.28-.28.56h-.28ZM436.74,222.28c.28-.56,1.12-.84,1.96-.56.84.28.56.84-.28,1.4-.84.28-1.96-.56-1.68-.84ZM437.86,382.72c-.56-.84-1.4,0-.84.84.56.84,1.68,0,.84-.84ZM438.42,379.64c-.28-1.12-.84-1.96-1.12-1.68-.56.28-.56,1.4,0,2.24.84,1.12,1.4.56,1.12-.56ZM441.22,374.88c1.68.56,3.08-.56,2.52-1.4-.56-.84-2.24-.56-3.64-.56-1.68.28-.56,1.4,1.12,1.96ZM447.38,383.84c.28-.56-.84-1.12-1.96-.84-1.12.56-2.52.28-3.08-.28-.84-.84-2.52,0-2.52,1.12s1.96,1.68,3.08,2.8c1.12,1.12,1.96,1.4,1.4.56-.56-.84,0-2.24,1.12-2.24.84.28,1.96-.56,1.96-1.12ZM440.66,284.72c.56.28,1.12-.28.28-.56-.56-.28-.56.28-.28.56ZM441.5,370.96c.56,0,.28-.56-.28-.56-.28.28,0,.56.28.56ZM442.06,301.24c-.56.56-1.12.28-.84-.28,0-.56,1.12,0,.84.28ZM450.74,297.32c-1.4.56-3.36,1.12-3.92.28-.84-.56-2.52-1.12-3.36-.56-.84.84-1.68-.28-.84-1.4.84-.56,1.68-1.12,2.24-1.96.28-.56.56-.84.84-.56.84.28.56,1.12,0,1.12-.56.28,0,1.68.84,1.96.84.28,2.52.84,3.92.28,1.4-.56,1.4.28.28.84ZM442.34,378.24c0,.28.84.56.84,0,0-.28-.84-.28-.84,0ZM445.7,223.68c-1.12-.28-2.8,0-2.52,1.4.28,1.4.56,3.08,1.12,2.8.56-.28,1.12.84,2.24,1.12,1.12.28.84-.84.84-1.96.28-1.12.84-2.24.84-2.52,0-.56-1.12-.56-2.52-.84ZM445.7,298.72c0,.28,0,.84-.56,1.4-.28.28-.56.28-.84.28-.56-.28-.84-1.4-.28-1.96.56-.84,1.4-.56,1.68.28ZM444.02,372.08c.56.28,1.4-.28,1.12-.84-.56-.84-1.68.28-1.12.84ZM444.58,380.2c-.28-.56-.56-.28-.56.28.28.28.84,0,.56-.28ZM444.58,286.96c.28,0,.56,0,.56-.28,0,0,0-.28-.28-.56q-.28,0-.56.28c-.28.28,0,.56.28.56ZM447.38,302.92c-.28-.56-1.4,0-1.4.84s0,1.68-.56,1.96c-.56.28-.28.84.56.84s.84-.84.84-1.12c-.28,0,0-.56.56-.84s.56-1.12,0-1.68ZM447.1,370.96c.56.56.84.28.28-.28-.56-.56-.84-.28-.28.28ZM447.66,380.2c-.84.56-.28,1.12.56.56.56-.56,0-1.12-.56-.56ZM448.5,221.44c.56-.84,1.4,0,1.12,1.12-.56,1.4.28,2.24.56,1.12.28-1.12,1.68-2.52,2.24-3.64.56-1.12-1.68-1.4-2.52-2.52-.84-.84-.56.28-1.12,1.96-.56,1.4-1.12,2.8-.28,1.96ZM450.74,302.92c-.28-.56-1.4-.84-1.96-.28-.28.84,0,1.68.84,1.68.56,0,1.12-.84,1.12-1.4ZM449.62,375.72c-.84-.28-.84.84-.28.84.84,0,1.12-.84.28-.84ZM449.34,383.28c-.28,0,.28.56.56.56.28-.28-.28-.84-.56-.56ZM449.9,229c-.28.28,0,1.12.56.84.28-.28-.28-1.12-.56-.84ZM452.14,305.16l-1.12-1.12c-.28,0-.28.84,0,1.68.28.56,1.68-.28,1.12-.56ZM452.14,301.24c-.56-.28-1.12.28-1.12,1.12.28.84.56,1.12,1.12.56.56-.56.56-1.4,0-1.68ZM451.86,379.92c-.28-.28-.84.28-.56.84.56.56,1.12-.56.56-.84ZM456.9,221.44q-.28-.28-.84-.28c-.56.56-1.4,1.12-2.24,1.68-1.4.28-2.52.28-1.96,1.12.56,1.12,1.96.56,3.08.28.84-.28,2.8-.56,3.64-1.68.56-.56,1.12-1.4,1.68-2.24.28-.28.56-.28,1.12-.28.56.28.84-1.4,0-1.4-.84.28-1.4-.28-1.4-1.12-.28-.56-1.4.28-2.52-.28-1.4-.28-2.52,0-2.8.56,0,.56,0,.84.28,1.12.28.56.84.56,1.12.56.56-.28,1.68.28,1.96,1.12.28.84-.84,1.4-1.12.84ZM453.26,383.84c-.56-.28-.84.28-.56.56,0,.28.84-.28.56-.56ZM456.06,299.56c-.28-1.12-1.68-.56-1.96.28-.28,1.12-1.12,2.24-1.12,2.52s.84.56,1.68.28c.84-.28,1.68-1.96,1.4-3.08ZM453.54,306.56c-.28.28.28,1.12.56.84.28-.56,0-.84-.56-.84ZM454.1,374.6c.84.28.84-.56,0-.56-.56-.28-.84.56,0,.56ZM454.66,291.44c.84.84,1.4.56.84-.56-.56-1.12-1.4-.28-.84.56ZM454.94,376.56c-.56,0-.56.84,0,.84s.28-.84,0-.84ZM455.78,381.88c-.28.28,0,.84.56.56.28-.28-.28-.84-.56-.56ZM455.78,379.64c0,.28.56.84.84.56,0-.28-.56-.84-.84-.56ZM456.62,229.84c0-.28-.56-.28-.28.28,0,.56.56,0,.28-.28ZM457.46,300.68c-.56,1.12,1.12,1.12,1.4.28,0-1.12-.84-1.68-1.4-.28ZM458.86,379.08c-.28-.56-.84.56-.56.56.28.28.84-.28.56-.56ZM460.26,295.36c-.28-.28-.84.28-.84.56.28.28,1.12,0,.84-.56ZM461.94,383.84c-.56-.84-1.68-1.68-1.96-.84-.28.56.28,1.68,1.12,2.24s1.68-.56.84-1.4ZM460.26,375.44c.28.56,1.12-.28.56-.56-.28-.28-.84.28-.56.56ZM462.5,381.6c-.84-1.12-1.96-1.12-1.96-.56.28.56.84,1.96,1.96,1.96s.56-.56,0-1.4ZM462.5,228.16c-.84.28-1.96,1.4-1.4,2.24.28.84,2.24,0,2.52-1.12.28-.84-.28-1.4-1.12-1.12ZM461.1,291.16c0,.28.28.56.56.28.28,0-.28-.56-.56-.28ZM462.5,222c-1.12,1.12-1.4,1.68-.28,1.68,1.4,0,2.24-1.12,2.24-1.96s-.56-.56-1.96.28ZM462.78,295.36c.56-1.12-.84-.84-1.12.28,0,.84.56.84,1.12-.28ZM469.78,306.28c-.84-.28-1.96.56-2.8,1.12-1.12.84-2.52.84-2.52-.56,0-1.12-.84-2.24-1.68-2.8-.84-.28-1.4,1.12-.56,1.68.84.28,1.12,1.68.84,1.96-.56.28,0,.84.84,1.12,1.12.56,1.68,1.12,2.24,1.4.56.28.84-1.68,2.24-2.24,1.4-.84,1.96-1.12,1.4-1.68ZM462.5,376.84c.28.28.84,0,.84-.28.28-.28-.56-.56-.84-.28-.56,0-.28.56,0,.56ZM463.62,377.4c-.28-.28-.28.28-.84.84-.28.84,1.12,1.12,1.4.56.28-.56,0-1.4-.56-1.4ZM465.02,218.36c.28-.56-.56-1.12-.84-.28-.28.84.28,1.12.84.28ZM464.46,384.68c-.28.28.28.84.28.56.28-.28-.28-.84-.28-.56ZM466.14,305.44c1.12.84,2.52-.28,2.8-.84.28-.84-1.12-1.68-1.96-2.24-.84-.84-1.12.28-1.68,1.12-.56.56,0,1.4.84,1.96ZM465.58,299.28c.56.28,1.12-.56.56-.84s-.84.56-.56.84ZM466.98,380.76c-.56-.56-1.68,0-.84.84.84.56,1.4,0,.84-.84ZM466.14,223.96c.56.56,1.4.28,1.96-.56.28-.84,0-1.96-.84-1.68-.84,0-1.4,1.4-1.12,2.24ZM466.98,376.84c-.84,0-.84,1.12,0,1.4,1.12.28,1.12-1.4,0-1.4ZM467.26,296.76c.84.56,1.12-.28.56-.84-.84-.56-1.4,0-.56.84ZM471.46,379.08c-.56-2.52-.28-4.76-.28-5.32s0-.84-.56-1.12c-.28-.28-.56-.56-1.12-.28-.56,0-.84,1.4-.28,2.24.28.56.56,2.24.84,3.92.28,1.68,0,3.92.84,4.48,1.12.56,1.12-1.68.56-3.92ZM472.58,304.32c.84-.28.56-1.4-.28-1.96-1.12-.84-1.68-1.96-1.68-2.8s-1.4-.28-1.68,1.12c0,1.12.28,2.8,1.12,3.08.56.56,1.96.84,2.52.56ZM470.06,225.64c.56,1.12,1.68,1.96,2.52,1.96.28,0,.84.28,1.12.56.28.28,0,.56-.28.84,0,.56,1.12.56,1.68,0,.56-.56-.56-1.96-1.68-2.24-1.4-.28-2.52-1.4-2.8-2.24-.28-.56-1.12,0-.56,1.12ZM471.74,295.08c0-.28-.28-.56-.28-.28-.28.28,0,.56.28.28ZM473.7,306c.28-.28,0-.56-.56-.84h-.28c-.28,0-.56.56-.28,1.12,0,.56,1.12.28,1.12-.28ZM474.54,222.28c1.4-.84-.56-1.96-1.12-1.12-.56,1.12,0,1.68,1.12,1.12ZM474.26,374.6c-.28,0-.56.28-.28.56.28.28.56-.28.28-.56ZM475.66,299c.28-.84-.28-.84-.56-.28,0,.84.28,1.12.56.28ZM478.18,311.88c-.28-.56-.28-.84-.28-1.12.28-.84,1.4-1.4,1.4-1.68.28-.56-1.12-.56-1.96-.28-1.12.28-2.24,1.12-1.68,1.4.56.28.28,1.12-.28,1.4-.56.56.28.56,1.12,1.12.56.84,1.68.84,1.96.28.28-.28.28-.56-.28-1.12ZM477.06,302.08c.84-.56.28-1.68-.56-1.4-.84.56-.56,1.68.56,1.4ZM477.06,306c-.28,0-.84.28-.56.84.56.28,1.12-.56.56-.84ZM479.86,381.04c.84-.28,1.12-1.12.28-1.4-.56-.56-1.4.56-2.24,1.4-.56,1.12,0,2.52.28,1.96.28-.56.84-1.68,1.68-1.96ZM478.18,228.72c0,.84.84,1.96,1.4,2.52.84.84,1.68,1.12,1.68,1.12.28-.28-.28-1.4-1.12-2.8-.84-1.68-1.96-2.52-1.96-2.52-.28,0,0,.84,0,1.68ZM478.46,225.92c.28,0,.28-.56,0-.56-.28-.28-.28.28,0,.56ZM478.74,299c.28,0,.56-.56.28-.84-.56,0-.56.84-.28.84ZM478.74,221.44s.56.56,1.12.56c.56-.28.56-1.12,0-1.4-.28,0-.84,0-1.12.56v.28ZM479.02,372.36c-.28.56.56.84.56.56.28-.28-.56-.84-.56-.56ZM479.58,316.64c0-.28-.28-.56-.56-.28q0,.28.28.56s.28,0,.28-.28ZM479.86,310.2c-.56-.28-.84,0-.56.56.28.28.84,0,.56-.56ZM480.42,382.44c-.84,0-1.12.56,0,.84.84.28.84-.84,0-.84ZM481.54,301.24c-.56-.56-.84-.28-.84.84-.28.84.56,1.68,1.12,1.12.28-.28,0-1.4-.28-1.96ZM482.1,228.16c.28-.28.56-.28,1.12-.28.28-.28.28.56.56.84.28.56.84-.56.84-1.4s-.84-1.68-1.4-1.12c-.56.28-1.4-.84-.84-1.68.56-.84.84-1.68.84-2.24,0-.84-1.68.28-2.24,2.52-.56,2.52.84,3.92,1.12,3.36ZM487.98,372.64c-.56.28-1.12.28-1.4.84,0,.56,0,1.12-.28,1.68,0,1.12-1.12,1.12-1.96,1.96-.84.56-2.24.56-2.8.28-.56-.56-.28,1.12,1.68,2.8,1.68,1.68,3.92.84,5.04-.28,1.12-1.12,0-2.24-.28-3.36-.56-1.12.28-2.52.84-3.64.56-1.12-.28-.84-.84-.28ZM482.94,233.48c-.28-.28-.84.56-.56.84.56.56,1.12-.56.56-.84ZM483.22,384.12c-.28-.28-.56.84,0,.84.28,0,.56-.56,0-.84ZM483.78,374.6c.28-.28.28-.84-.28-.84-.28,0-.28.84.28.84ZM484.9,306.84c.56-.28.28-1.4-.28-1.4-.56.28-.28,1.4.28,1.4ZM486.3,379.64c0,.84-.84.84-.84-.28,0-.84,1.12-.56.84.28ZM487.14,225.64c.28-.84-.84-1.12-1.12-.56-.28.56,1.12,1.12,1.12.56ZM486.86,229.84c-.84,1.4-1.12,3.36-.28,2.8.56-.56,1.4-.84,1.68-.28,0,.28.84-.56.84-1.4.28-1.12,1.4-2.52,2.8-3.08,1.12-.56.56-1.12-.84-.84-1.4,0-3.08,1.4-4.2,2.8ZM486.86,315.8c0,.56.84.28.84,0,0-.56-1.12-.28-.84,0ZM488.26,363.96c0,.56,1.12.84,1.12,0,0-.56-1.12-.84-1.12,0ZM489.1,367.6c-.84.56,0,1.12.56.56.56-.28.28-1.12-.56-.56ZM489.66,224.8c.84.56,1.4.28,1.12-.28,0-.84.56-1.4,1.12-1.12.84,0,1.96-.56,1.96-1.12s-.56-.84-1.12-.28c-.56.56-1.68-.28-1.96,0l-1.68.84c-.56,0-.28,1.4.56,1.96ZM493.58,230.68c-.56.28-1.12,1.12-1.96,1.12-.84.28-1.4,1.68-1.4,2.52,0,1.12,1.4,1.12,2.24-.56.56-1.4,2.8-1.68,3.64-1.12.56.56,1.12-.84.28-1.68-.84-.84-2.52-.56-2.8-.28ZM491.06,220.6c.28.56.84.56.84,0s-.84-.28-.84,0ZM491.34,230.96c.56.28,1.12-.28.84-.56,0-.56-1.4,0-.84.56ZM493.02,376c-1.4-.56-1.68,0-.56.56,1.4.56,1.96-.28.56-.56ZM492.46,331.2c.28,0-.28-.56-.56-.56-.28.28.28.84.56.56ZM492.46,371.8c.28.56,1.12-.28.84-.56-.56-.56-1.12,0-.84.56ZM493.3,367.32c.28,0,0-.56-.28-.56-.28.28,0,.84.28.56ZM493.58,238.24c0-.56-.84,0-.56.28.28.56.84.28.56-.28ZM495.26,361.16c-.28-.56-.84,0-.56.28,0,.56.84,0,.56-.28ZM495.26,371.52c-.56.28.28.84.56.56.56-.28,0-1.12-.56-.56ZM495.54,224.52c.28,1.12,1.96,1.12,1.96.28.28-1.12-1.96-1.4-1.96-.28ZM496.38,366.48c-.28-.28-.84.56-.28.84.28.28.56-.84.28-.84ZM497.22,358.36c0-.56-.84-.28-.56,0s.56.28.56,0ZM497.5,351.08c-.84-.56-1.12-.28-.56.28.84.84,1.12.28.56-.28ZM497.5,239.92c-.56.28-.28.84.28.56.56,0,.28-.84-.28-.56ZM498.06,234.04c.28.56,1.12.84,1.68.28.28-.28-.28-1.12-.84-1.12-.84-.28-1.12.28-.84.84ZM498.9,374.6c0-.56-.56-.56-.56,0-.28.56.56.28.56,0ZM498.62,326.16c.28.28.84-.28.28-.56-.28-.28-.84,0-.28.56ZM498.9,343.52c.84.28,1.12-.56.28-.84-.84,0-1.12.84-.28.84ZM499.46,229.84c.84.56,1.4-.84.56-1.4-.84-.28-1.68.84-.56,1.4ZM500.3,331.76c0-.28,0-.56-.28-.56q-.28-.28-.56-.28c-.28,0-.28.56.28.84.56.56.84.56.56,0ZM499.46,363.12c-.28,0,.28.56.28.28.28-.28-.28-.56-.28-.28ZM499.74,242.16c-.56.28,0,1.12.56.84.56-.28,0-1.12-.56-.84ZM500.86,347.72c0-.28-.28-.56-.56-.28,0,.28.56.56.56.28ZM501.98,238.52c.28.28.56.28.56,0v-.56c-.28-.28-.56,0-.84.28,0,0,0,.28.28.28ZM502.54,350.52q-.28.56.28.28c.56-.56,0-.84-.28-.28ZM503.1,235.16c.84,1.96,1.96,1.68,2.24.56,0-1.4-.28-2.8-.56-2.24-.28.28-.56.56-.84.28-.56-.28-.56-.56-.56-1.12.28-.28.28-.56,0-.84-.28-.56-1.12,1.4-.28,3.36ZM503.38,337.64c-.56.28.28,1.12.56.84.28-.56-.28-1.12-.56-.84ZM503.94,332.04c-.28-.56-.84,0-.56.28.56.56.84.28.56-.28ZM504.5,320.28c.28,0,.28-.84-.28-.56-.28,0-.28.56.28.56ZM505.34,367.32c-.28-.84-1.4.28-.84.56.56.56.84.28.84-.56ZM507.86,341c0-.28-.84-.28-.84,0-.28.56.84.56.84,0ZM507.3,233.2c.28.28,1.12,0,.84-.28,0-.56-.84-.28-.84.28ZM507.86,236c-.28.84.84,1.12.84.28.28-.56-.56-.84-.84-.28ZM508.14,239.36c0,.56.84.84.84.28.28-.56-.84-.56-.84-.28ZM513.46,339.32c0-.28-.56-.28-.56,0,0,.56.56.56.56,0Z"/>
  <path class="cls-1" d="M661.58,186.16c-.56,2.24-1.96,4.48-3.36,6.44-3.64,5.6-6.44,11.2-8.4,17.36l-.84,1.96c-2.24,2.8-3.64,6.16-4.2,9.8-1.12,6.44-4.76,11.76-6.44,18.2-1.96,5.88-4.48,11.76-5.88,17.92-1.96,7.28-5.6,13.72-7.84,21-1.12,3.92-2.8,7.84-4.2,11.76-3.36,10.64-7.84,20.72-11.2,31.08-2.24,6.72-3.92,13.44-6.16,19.88-1.4,4.76-4.2,8.96-5.32,13.72-1.4,5.04-3.92,9.52-5.04,14.84-.56,4.48-3.64,8.12-4.48,12.32-.56,2.24-1.68,4.48-1.96,7-.56,3.36-1.68,6.44-3.36,9.24-.84,2.24-1.4,4.76-1.68,7.28-.56,6.16-2.52,11.76-6.44,16.8-1.12,1.12-2.52,2.24-4.2,2.8-2.52.84-4.76,1.96-7.28,3.08-1.4.56-2.52.56-3.92.28-2.24,0-5.88,0-8.4.28-1.68,0-3.36,0-4.76.28-3.92.28-7.84-1.12-11.2-3.08-3.36-1.96-3.92-8.4-1.96-12.6,5.04-8.96,8.96-18.2,12.6-27.72,3.36-9.24,5.6-18.76,9.24-27.72,1.68-3.92,3.08-8.4,4.76-12.32,1.68-4.48,2.52-8.96,4.48-13.16,1.96-3.64,3.08-7.84,3.92-11.76.28-2.24,1.4-3.92,2.52-5.88,1.68-3.36,1.96-7.28,3.36-10.92,6.72-17.64,13.72-35.28,19.32-53.48,3.64-10.64,8.12-21,10.92-31.92,1.68-5.6,2.52-11.2,4.2-16.8,1.4-4.2,1.12-8.68,1.68-13.16.28-3.64,1.96-6.44,3.92-9.24,2.52-3.64,6.72-5.32,10.36-5.6,5.6,0,11.2-1.12,16.52-.28,5.32.56,10.64-.84,15.68,1.4,5.6,2.24,7,5.04,5.04,10.92ZM577.58,369c-1.4-.28-1.4-2.52-.56-2.52.56,0,1.12-1.4.28-1.96-.28,0-.84-.28-1.4,0h-2.8c-1.68,0-1.96.56-1.12,1.4.84.84.56,3.08-.28,4.2-1.12.84-2.24,2.52-2.52,3.92-.28,1.4-1.4,2.24-1.96,1.96-.56-.56-1.96,0-2.8.56-.56.56-1.12,1.68-.84,2.24.28.56-.28,1.68-1.12,2.24-1.12.84-.28,2.52.56,2.24s.56,1.12.56,2.24c.28,1.4.28,3.08-.28,3.36-.84.28-.84,1.68-.28,1.96.56.28,1.68,0,2.24-1.12.56-.84,2.24-.84,2.52,0,.28.56-1.12,1.12-1.96,1.96l-1.68,1.96c-.56.28-1.12,1.12-1.96,1.68-.84.56-2.24-.56-1.4-1.12.84-.84.84-2.8,0-4.48-.84-1.68-2.8-2.52-3.36-1.96s-.28,1.68.28,1.96c.84,0,.28,1.12-.84,1.4-1.12.28-1.68,1.96-1.68,3.08,0,.84.28,2.24.84,2.52.56.56,0,1.12-1.12,1.68-1.12.56-1.12,3.36-.84,5.04,0,1.96.28,4.48-.28,5.32-.56.84-.84,2.24-.56,2.8.56.84,1.4-.84,2.24-2.52,1.12-1.68,2.8-2.8,3.64-2.52.56.56,1.96.28,3.08-.28.84-.56,2.24-.28,2.8.28.28.56,1.12,1.12,1.68.84.28-.28.56-1.68.56-2.52-.28-1.12-.84-2.52-1.68-3.36-.84-.56-1.96,0-1.4.56.56.84-.28,1.4-1.12.84-.84-.56-.56-2.8.28-3.92s2.24-.84,2.24-.28c0,.84.56,2.24,1.68,2.8,1.12.56,3.36-.56,4.76-1.96,1.12-1.68,2.24-3.64,1.96-4.48-.28-.84-1.4-1.4-1.96-1.4-.56.28-.28-.84.56-1.12,1.12-.28,1.4-1.12,2.24-1.68.84-.56,1.12-1.68.56-1.68-.56-.28-1.12-.28-1.12-.84-.28-.84,0-1.68.28-2.24.84-1.12.84-2.8.28-3.36-.84-.56-1.12-2.24-.28-3.36.56-.84-1.12-1.4-2.24-.28-.84,1.4-2.52.28-1.96-.56.84-.56,1.12-2.52,1.4-4.2,0-1.68,1.68-2.8,1.96-1.96.56.84,1.68.84,1.96.28.56-.56,1.4-.56,1.96-.28.28.28,1.4-.84,1.96-1.68.56-.84-.28-1.68-1.96-1.68ZM558.54,400.36c.84.84.28,1.96-.56,1.68s-.28-2.52.56-1.68ZM557.98,409.6c-.56.56.84,1.96,1.4,1.4s-.56-1.96-1.4-1.4ZM565.54,409.04c0-.84-.56-1.68-1.4-1.68-.84-.28-1.4,1.12-.84,1.96.84.56,2.24.28,2.24-.28ZM570.58,398.4c-.56.84-2.52,1.12-2.52,0-.28-.84-.56-1.96-1.4-1.68-.56.28-1.12.56-1.12.28q-.28-.28-.28-.56t-.28-.56c0-.28,0-1.12.56-1.96.56-.56,2.24,0,3.64,1.12,1.12,1.12,1.96,2.8,1.4,3.36ZM571.42,384.4c.56-.56,1.96.28,1.4,1.12,0,.56-.56.84-1.12,1.12-1.4.56-2.52.28-3.36-.28-1.68-.84-2.24-3.36-1.12-3.92.84,0,1.4,0,2.24.56.28.28.28.56.28,1.12s.84.84,1.68.28ZM580.1,359.2c-.28-.84-2.52-1.96-4.48-2.52-1.96-.56-5.04.56-6.44,2.8-.84,1.4-1.68,3.08-2.24,4.48-.28.84-.28,1.4,0,1.96.28.84,1.68.28,2.24-.28.56-.56,1.12-2.52,2.52-3.36,1.12-.84,3.08-1.96,4.2-.56,1.12,1.12,3.08.56,3.64.28.56-.56.84-1.96.56-2.8ZM572.54,352.48c.84-.84,0-1.68-.84-1.12-.84.56,0,1.96.84,1.12ZM573.1,341.56c0,.56,1.4,1.12,1.68.84.28-.28.56-.56.28-1.12,0-.56-.28-.84-.56-1.12-.84-.28-1.4.56-1.4,1.4ZM577.02,352.2c-1.12-.84-2.8-.56-3.36.84-.56,1.12,1.12,1.4,2.52,1.4,1.12,0,1.68-1.68.84-2.24ZM575.34,345.2c-1.96.84-1.4,3.08-.56,1.96.56-.84,2.24-.84,2.52,0v1.68c.28.28.28.84.84,1.4s1.12-.84.56-2.24c-.28-1.12-1.12-3.92-3.36-2.8ZM580.94,341.84c.56-1.4,0-1.68-1.12-1.68-.84,0-2.24.56-1.96,1.4.28.84,2.52,1.4,3.08.28ZM585.14,328.4c-.28-.56-1.4-.28-2.24,0-.56.56-1.4,1.68-1.96,2.8-.28,1.12.84,3.36,1.96,5.6,1.12,2.24,1.68,1.68,1.4-1.68-.28-3.36,1.4-6.44.84-6.72ZM582.06,354.72c-1.12.56-1.4,2.8-.84,4.2.84,1.12,1.4,0,2.24-1.4.84-1.68-.56-3.36-1.4-2.8ZM584.02,344.36c-1.12,0-2.8.56-2.8,1.4,0,1.12,1.96,1.12,3.08.28.84-.84.56-1.68-.28-1.68ZM589.9,332.88c-.84,0-1.4.56-2.24.84-.84.84-1.12,1.96-1.12,3.36.28,1.96,1.96,3.36,2.52,3.08l.56-.84c0-1.12-1.12-1.96-.56-3.36,0-.56.56-.84,1.12-1.12.84-.56.84-2.24-.28-1.96ZM591.02,324.48c-.84-.28-1.96.84-2.8,1.68-.84.56,0,.84,1.4.28,1.68-.56,1.96-1.96,1.4-1.96ZM588.78,308.8c.56.84.84,1.12,1.12.28.28-.84-.28-1.96-1.12-2.24-.56,0-.56,1.12,0,1.96ZM588.78,318.6c-.28,1.12.56,2.24,1.4,2.24.56,0,.84-1.4.84-2.52-.28-.84-1.96-.84-2.24.28ZM590.46,303.2c.28-1.12-1.12-1.4-1.4-.28-.56,1.12,1.4,1.4,1.4.28ZM597.18,300.96c-1.12-.28-3.08,0-3.92,1.12-1.12.84.28,3.08,1.12,1.96.56-1.12,1.96-1.96,3.08-1.96.84.28.84-.56-.28-1.12ZM596.06,318.88c-.56-.56-1.4.28-1.96,1.12-.84.56-.56,1.96,0,2.24.28,0,1.4-.28,1.96-.84.28-.84.28-1.96,0-2.52ZM594.94,310.76c.84,1.12,2.24,0,1.68-.84-.84-1.12-2.52-.28-1.68.84ZM595.78,313.28c-.56.56.56,1.68,1.68.84.84-.56-.84-1.68-1.68-.84ZM598.58,289.2c-.84-.84-1.96.28-.84,1.12.84.56,1.68-.56.84-1.12ZM600.26,298.44c-.84-.84-1.96.28-.84,1.12.84.84,1.96-.28.84-1.12ZM606.14,269.04c-.84-.56-1.4-.56-2.24.56-1.12.84-1.12,1.12,0,1.12.56-.28,1.12,0,1.68.28.56.28,1.12.56,1.68.56.84-.28,0-1.96-1.12-2.52ZM609.78,254.2c-.28-.28-.84-.56-1.4-.56-.84,0-1.12-.56-1.4-.84-.56-.56-1.68-.56-1.96,0-.28.84.84,1.96,2.24,2.24,1.12.56,2.8,0,2.52-.84ZM606.14,267.36c.56-.28.56-1.12,0-1.68-.56-.56-1.12.28-1.12.84s.56.84,1.12.84ZM611.18,272.68c-.28,1.4,1.12,1.68,1.68,0,.28-1.68-1.12-1.68-1.68,0ZM612.86,250.84c1.12.56,2.8.56,3.08,0,.28-.56-1.12-1.12-2.52-1.4-1.4-.28-1.68.84-.56,1.4ZM613.7,259.52c.28-1.96-.28-3.64-.84-3.36-.84.28-.56,1.96-.56,3.36-.28,1.12,1.12,1.68,1.4,0ZM615.1,265.68c0-.84-1.12-.84-1.68,0-.84.84-.56,1.96.28,1.96s1.68-1.12,1.4-1.96ZM619.86,232.64c-.84-1.12-3.08.28-4.76.56-1.68.56-1.12.84,1.12,1.12,2.24,0,4.76-.56,3.64-1.68ZM616.5,254.76c-.28-.28-1.68-.28-1.96.28-.28.56.28,1.12.84,1.12.84.28,1.4-.84,1.12-1.4ZM615.66,239.92c-.84.84.28,1.68.84.84.84-.84,0-1.4-.84-.84ZM621.82,235.72c-.56-.56-1.12.56-1.68,1.68-.84,1.12-1.12,2.8-1.12,3.92s1.12,1.12,1.12.28c0-.56-.28-1.12,0-1.68.28-.56.84-.84,1.4-1.12.84-.56,1.12-2.24.28-3.08ZM629.1,204.36c.28-.84-1.12-1.12-2.52-.56-1.12.56-1.68-1.4-1.12-2.24.56-.56,0-1.96-.84-2.24-.84-.56-2.24-.28-2.52.28-.56.56-.28,1.68.28,1.96.28.28-.28,1.4-.84,2.24-.56.84.84.56,3.08,1.12,2.24.56,4.48,0,4.48-.56ZM625.18,227.6c-1.12-1.96-.56-4.2-.28-5.32.56-.84-1.12-1.12-1.96-.56s-1.4,2.8.56,5.32,3.08,2.24,1.68.56ZM623.78,231.52c-.28-.28-1.12.28-.84,1.12.28.56,1.68.84,1.68,0,.28-.56-.28-1.12-.84-1.12ZM625.18,215.56c-1.12-.84-1.4-.84-1.96.28-.56,1.4.56,1.68,1.96,1.4s1.12-.84,0-1.68ZM628.54,221.16c-.84-1.12-1.68-.28-.84.56.56,1.12,1.4.56.84-.56ZM632.18,199.32c.84-.28.56-1.68-.28-1.12-.56,0-.84.28-1.4,0-.56,0-.84-.28-1.4-.56-.84-.56-1.68.84-.56,1.4,1.12.56,2.8.84,3.64.28ZM631.34,192.88c.28-1.4-1.68-1.68-1.96-.84-.56,1.12,1.68,1.96,1.96.84ZM634.14,206.32c-.28-.84-1.96-.28-2.24.84,0,1.12,1.12,1.4,1.68,1.12.56-.28.84-1.4.56-1.96ZM637.5,204.36c-.56-1.4-1.4-1.12-1.12.28.28,1.12,1.68,1.12,1.12-.28Z"/>
  <path class="cls-1" d="M773.02,311.88v.84c0,1.4-.28,2.8-1.12,4.2-.56,1.12-.84,2.8-1.12,4.2,0,.84-.28,1.68-.84,2.24-1.68,1.68-2.8,4.2-4.76,5.6-1.96,1.68-3.36,3.64-5.6,4.76-1.4.84-1.96,2.24-3.64,3.08l-3.92,1.68c-2.24.84-5.6,1.96-7.56,2.52-1.12.28-2.24.84-3.36,1.12-4.2,1.12-8.4,2.8-11.76,5.6-1.12.56-1.96.84-3.08,1.12-1.96.56-6.72,2.52-8.4,3.36-1.96,1.12-3.92,2.24-5.88,2.8-1.4.28-2.52.84-3.92,1.4-1.96,1.12-4.2,1.96-5.04,1.96-.56.28-2.24.56-3.92,1.12-1.4.56-4.48,2.52-7,3.92-1.68.84-3.36,1.68-5.04,2.24-3.36,1.4-6.72,2.8-9.8,4.76-.84.28-1.4,1.12-1.96,1.68-1.12.84-2.52,1.68-3.08,1.68-.28,0-.84,0-1.12.28-1.96.84-3.64,1.96-5.32,3.64-1.12,1.12-1.96,2.52-3.92,2.8l-.56.56c0,.28-1.4.56-2.8.56s-4.76-.28-6.44-2.8c-1.96-2.52-2.24-8.68-2.24-12.88v-7.84c0-.84.28-1.96-.56-2.8-.28-.28-.28-.84,0-1.4,1.12-1.68.56-3.64.84-5.32l1.68-4.48c.84-1.4,1.96-2.24,2.8-3.64,1.12-2.24,1.4-1.96,3.64-3.36,1.4-.56,2.8-1.12,3.92-1.96,1.68-.56,3.36-.56,5.04-.56,1.12.28,1.96,0,2.8-.28,1.68-.56,3.36-1.4,3.64-1.4h1.12c1.4.28,2.8,0,4.2-.84,1.12-.84,2.8-1.12,4.2-1.4.84,0,1.68-.28,2.52-.56,2.24-1.12,5.04-1.4,7.56-2.24,1.68-.56,3.64-.84,5.6-1.4,1.4-.56,2.8-1.12,4.2-1.96,1.68-1.12,3.36-1.68,5.32-2.24,3.36-1.12,6.16-2.52,9.52-3.92.84-.28,1.96-.84,3.08-1.12,1.68-.56,4.76-1.96,6.72-3.36,1.96-1.4,3.64-3.64,3.36-4.76-.28-1.4-1.4-3.64-3.08-5.04l-3.36-1.96c-1.12-1.12-3.08-1.4-4.48-1.96-3.08-.84-5.6-2.24-8.4-3.08l-7-3.36c-.84-.56-1.68-.28-2.52-.56-2.8-.56-5.04-2.24-7.56-3.36-2.24-1.12-4.76-1.68-7.28-1.96-2.52-.56-5.04-1.12-7.56-1.96-.28-.28-.84-.28-1.4-.28-.84,0-3.64-.84-6.16-1.12l-4.76-.84c-4.48-.28-8.68-1.96-12.04-5.32-1.96-1.96-3.08-4.2-3.92-6.72s-1.68-5.32-2.24-8.12c-.28-2.24-.56-4.76.28-7,.28-.56.28-1.4.28-2.24-1.12-4.76-.56-7.28.84-12.32.84-2.8,2.24-4.2,4.48-5.32.84-.28,1.4-.56,1.96-.28,1.4.84,2.8.56,4.2,1.4,2.52,1.68,5.32,2.52,7.56,4.2,2.8,2.24,6.16,3.08,8.68,5.6.84.56,1.68.84,2.52,1.12,1.4.28,2.8,1.12,3.64,2.24,1.12,1.12,2.52,1.96,3.64,2.24s2.24.84,3.36,1.4c3.36,1.68,7.28,2.8,10.92,4.48,4.76,1.96,9.52,3.36,14,5.6l2.52,1.68c1.68,1.12,3.64,1.4,5.32,2.24,1.12.28,2.24.84,3.08,1.12,1.4.56,2.52,1.4,4.2,1.12.84,0,1.96.28,2.8.84,1.96,1.68,4.2,2.24,6.44,3.08h.28c3.08,2.24,6.72,2.8,10.08,4.2l4.2,1.68c1.12.28,2.24.84,3.08,1.68,2.24,1.68,4.2,3.36,6.16,5.04,1.68,1.12,2.8,3.08,4.2,4.48.56.28.84.84.84,1.12.56,2.52,1.96,4.2,2.8,6.44.84,1.68,1.68,3.36,1.4,5.32v5.6c.28.28.56.28.56.84,0,.28-.56.56-.56.84ZM669.14,266.24c0-.28-.56-.56-.84-.56s-.28-.84-.56-1.68c0-.56-.28-.28-.28.56s.28,1.96.56,2.24c.28.28,1.12-.28,1.12-.56ZM669.14,353.88c0-.56-.56-1.12-.84-1.12,0,0-.56.56-.28,1.4.28.56,1.12.28,1.12-.28ZM684.54,348.28c-.28,0-.56,0-.84-.28v-.84c0-.28-.56-.56-.84-.56-.28.28-.28,1.12-.28,1.96s-1.12,1.4-2.24,1.4-1.96-.56-2.24-.28c-.56.28-1.12,0-1.4-.28,0-.28,0-.56-.56-.84-.28,0-.56.28-.84.56-.28.28-1.4-.56-2.52-1.12-1.12-.56-1.96.28-1.96,1.12,0,.56-.28.84-.84.56-.56-.56-.84.28-.84.56,0,.56.56.28.84.84.28.56.56.84.84.84.28-.28,1.12,0,1.4.56.56.56,1.4-.56,1.4-1.12,0-.84.28-1.4.56-1.4.56,0,.84.28,1.12.56,0,.28.28.56.84.56.28,0,.84.28.84.84s.28.84.56.84.56.56.56,1.12c0,.84.56.84.84.28.28-.56,1.4-.56,2.24-.84.84-.56,1.4-1.12,1.4-1.4s.84-.84,1.68-1.68.84-1.96.28-1.96ZM669.7,259.52c.56,0,.56-.56,0-.56-.28,0-.28.56,0,.56ZM670.82,269.04c0-.56-.84-.28-.84,0,.28.56.84.28.84,0ZM670.54,356.96h-.28c0,.28.28.28.28,0ZM672.22,264.56c.28-.56-.28-1.12-.84-1.12s-.56.28-.28.84c.28.56.84.56,1.12.28ZM675.02,271.28c0-.84,0-1.96-.28-1.96-.28-.28-.56-.84-.56-1.4s-.84-1.12-1.4-1.12-.84,1.12-.28,1.4c.84.56.84,1.68.28,1.96-.28.28-.56.56-.84.56v.28c0,.28.28.28.56.28s.84.28,1.12.56c0,.28.28.56.84.84.28.28.56-.56.56-1.4ZM673.62,263.16c0,1.12.28,1.96.84,1.96.28,0,.56-.56.56-1.12s-.28-1.4-.56-1.96c-.56-.28-.84.28-.84,1.12ZM675.3,352.76c-.56,0-1.4.84-1.12,1.4.28.84,1.68.56,2.24,0,.28-.84-.84-1.4-1.12-1.4ZM683.14,266.52l-.56-.56c0-.56-1.12-.84-1.96-.56-.84.56-1.96.84-1.96.56-.28,0-.56,0-.56.28s-.56.56-1.12.56c-.28,0-.56.84-.56,1.68,0,.56.56.84.56.28,0-.28.56-.84,1.4-1.12.56-.28,1.12-.84,1.12-.56,0,0,.84,0,1.68-.28,1.12,0,1.68,0,1.96-.28ZM676.98,347.44c.28.56.84.56,1.12.28,0-.28.56-.56,1.4-.56.56,0,1.68-.56,1.96-1.68,0-.84.28-1.68.56-1.68s.56-.56.56-.84c0-.56-.84-.56-1.12-.28-.28.56-.28,1.12-.84,1.12-.28,0-1.12.56-1.96,1.4s-1.96,1.68-1.68,2.24ZM678.1,262.04c0,.28.28.28.28,0s-.28-.28-.28,0ZM681.46,272.4c-.28-.28-.56-.84-.56-1.4-.28-.28-.56-.56-.84-.56-.28-.28-.28-.56-.28-1.12,0-.28-.84-.56-1.12,0-.56.56-.28,1.68.56,1.96.84.56,1.68.84,1.68,1.12,0,.56.56.28.56,0ZM682.58,268.48c0-.56-.28-1.12-.56-1.12s-.56.56-.56,1.12.28,1.12.56,1.12.56-.56.56-1.12ZM682.86,271.56c-.28,0-.28.28,0,.28s.28-.28,0-.28ZM684.26,274.08c0-.28-.28-.28-.84,0-.28.28-.28.56,0,.56.56.28.84-.28.84-.56ZM685.38,345.76v-.56c0-.28-.28-.28-.56-.28s-.56.28-.56.56.56.56.84.56l.28-.28ZM688.74,272.12c0-.28-.28-1.12-1.12-1.68s-1.68-.56-1.68-.84-.84-.28-1.12.28c-.28.56.84,1.4,1.68,1.96.56.56,1.12,1.12,1.68,1.12.28,0,.56-.56.56-.84ZM685.38,267.64c.28.28.56,0,.56-.28s-.28-.56-.56-.56-.28.56,0,.84ZM685.94,351.92c0-.56-.56-.56-.56,0s.56.56.56,0ZM687.34,347.72c-.28,0-.28.56,0,.56s.28-.56,0-.56ZM691.54,267.08c-.84-.56-1.68-1.4-1.96-1.4s-.84.28-.84.84l-.56.56c0,.28-.56.28-.84.28-.28.28.28,1.12.56,1.4.56.28,1.12.28,1.4.28.28-.28.84-.56,1.4-.56s.84.56.84.84.56,0,.84-.28,0-1.4-.84-1.96ZM691.54,346.04c0-.28-.84-.56-1.4-.56-.84,0-1.4.28-1.4.56s0,.56-.28.56l-.28.28.28.28.28-.28s.84-.28,1.4,0c.84.56,1.4-.28,1.4-.84ZM689.58,349.4c-.28,0-.84.28-.84.56,0,.56.84.56,1.12.28.56-.28,0-.84-.28-.84ZM691.54,340.44c0-.84-.28-1.12-.56-1.12s-.84.56-.56,1.12c.28.84,1.12.56,1.12,0ZM692.94,342.68c-.56-.28-1.4.28-1.4.84,0,.28.56.84.84.84.56.28.84,0,1.12-.28,0-.28,0-1.12-.56-1.4ZM693.78,272.4c.28,0,.56-.56.56-1.4,0-.56-.28-1.4-.28-1.4-.28,0-.84.56-1.12,1.4-.28.84.28,1.4.84,1.4ZM693.78,274.36c-.56,0-1.12.56-.84,1.12.56.84,1.68.56,1.96,0,0-.56-.56-1.12-1.12-1.12ZM699.66,344.36c0-.56-1.12-.56-1.4-.28-.56.56-.28,1.4.28,1.4s1.12-.56,1.12-1.12ZM699.66,275.76c-.28,0-.56.56-.56.84s.56.56,1.12.28c.56-.28,0-1.12-.56-1.12ZM701.62,338.76c-.56,0-.84.28-.84.56s.56.28.84,0c.56-.28.56-.56,0-.56ZM702.74,277.44c-.56,0-.84.56-.84.84s.56.56,1.12.28c.84-.28,0-.84-.28-1.12ZM703.02,271.28c-.28,0-.28.56.28.56.28,0,.28-.56-.28-.56ZM706.38,279.4c0-.56-1.12-.56-1.4-.28-.28.56-.28,1.12,0,1.4.28.28.84,0,1.12,0,.56-.28.56-.56.28-1.12ZM715.62,278.84c-.84,0-.84.84,0,1.12,1.12,0,.84-1.12,0-1.12ZM717.58,282.76c0-.56-.56-.56-.56,0,0,.28.56.28.56,0ZM720.38,281.36c0-.28-.56-.56-1.12-.28-.84.28,0,1.12.28,1.12.56,0,.84-.56.84-.84ZM722.06,332.88c0-.56-.28-.56-.56,0,0,.28.56.28.56,0ZM725.14,289.2c-.28-.28-.56,0-.56.28s0,.56.28.56.56-.56.28-.84ZM728.78,331.2c-.56,0-.84-.28-1.12-.56,0-.28-.28-.56-.56-.56,0,0-.56.56-.28.84,0,.56,0,.84-.56.84,0,.28-.28,0-.56,0s-.84.84-.56,1.12c.56.56,1.12.56,1.68.28.56-.28.84-.56,1.12-.84l.84-.56c.56,0,.28-.56,0-.56ZM731.3,290.32c.28.28.56.56,1.12.56.56.28,1.12-.28.84-.56-.28-.56.28-.84,1.12-.84s1.4-.56,1.4-1.12c0-.84-.56-.56-1.12-.56s-1.4,0-2.24.28c-.56.28-1.68,0-1.96-.28-.56-.28-.84.56-.84,1.12-.28.56.56,1.12.84,1.12s.56,0,.84.28ZM730.46,294.52c0-.28,0-.56-.28-.56s-.56.56-.28.84c.28.28.56,0,.56-.28ZM731.02,330.64c.28-.84-.28-1.12-.84-.56-.56.56.56,1.4.84.56ZM730.74,285.56c0,.28.28.28.84,0,.56-.28.56-.56,0-.56s-1.12.28-.84.56ZM731.02,327.28v-.56c-.28,0-.28.56,0,.56ZM731.3,332.04c-.56.56,0,1.68.84,1.4.84-.56,0-1.96-.84-1.4ZM732.7,289.48l-.28-.28s0-.28.28-.28l.28.28-.28.28ZM734.1,328.68v-1.12h-.28c-.28-.28-.84,0-1.12.28-.28.28,0,1.12.56,1.4.28.28.84,0,.84-.56ZM760.42,313c-.56-.28-.84-.84-.84-.84.28-.28,0-.84-.56-1.4-.56-.56-.56-1.4,0-1.4.28,0,.56-.84.56-1.12,0-.56-.84-1.68-1.4-2.8s-.84-2.52-1.12-2.52c-.56,0-.28-.84.28-1.4.56-.84.56-1.96-.28-2.24-.56-.28-1.12-.28-1.68-.28-.28,0-.84,0-1.12-.28-.56-.28-1.12-.84-1.12-1.4s-.28-1.4-.56-1.68c-.28,0-.56-1.12-.56-2.24,0-.84-.84-1.68-1.68-1.96-.56-.28-1.4.28-1.96.84-.28.28-.28.56-.28,1.12.28.28.56.56.56,1.12.28.56-.56,1.12-1.12,1.12s-.84-1.4-.28-2.8c.56-1.12-1.12-1.96-2.8-1.4-1.68.56-3.08-.28-3.08-.28,0-.28.56-.84,1.12-1.4.56-.28.84-.56,1.4-.28.28,0,.28-.28.28-.28,0-.28-.56-.28-1.12-.28s-1.4.28-1.68.84c-.28.28-.84.84-1.96,1.4-.84.56-1.68,1.12-1.96.84-.28,0-1.12.56-1.96,1.12-1.12.56-1.68,1.68-1.4,2.24,0,.28,1.4-.28,2.24-.84,1.12-.84,1.96,0,2.24.28.28.28,0,1.12-.56,1.68l-.84.84c-.28.28-.28.56-.28.56,0,.28-.28.56-.28.56l-.28.28c0,.28.28.28.28.28l.28-.28s.28-.28.84-.28c.28,0,.56.84,0,1.4-.56.56-.56,1.68,0,1.4.84-.28,2.24-.28,1.96.56-.28.56-.56.84-.28,1.4.56.56.56.84.28,1.4-.28.84-.28,1.68-.28,1.96.28.56.84.84,1.4,1.12.56,0,0,.28-.84.84-.56.56-.84,1.68-.84,2.52,0,.56,1.12.84,1.68.28.56-.56,1.4-1.12,1.68-.84.56,0,.56,1.12.28,1.68-.28.84-1.12,1.68-1.4,1.12-.56-.28-1.12.84-1.12,1.4,0,.84-.56,1.4-.84,1.4s-.84-.28-.84-.84c-.28-.56-1.12.28-1.68.84-.28.84-1.12,1.4-1.12,1.96,0,.84.28,1.68.56,1.68.28.28.56.84.56,1.4s-.56,1.4-.84,2.24c-.56.56-.84,0-.84-1.12,0-1.4-.84-2.24-1.4-1.68-.56.28-1.12,1.68-.56,2.24.28.28.84.56,1.12,1.12,0,.28.28.56.84.84.56.28,1.12.84,1.4.84.28-.28.84.28,0,.56-.56.28-.56,1.12-.28,1.12.28.28.56.84.56,1.4,0,.84-.28,1.4-.84,1.4-.28.28.28.84,1.12.56.84-.56,1.4-1.68,1.4-2.8s.56-2.24.84-2.24.84-.56.84-.84c0-.56.56-.84.84-.84.56,0,.84.56.56,1.12-.28.28.28,1.4.84,1.68.56.56,1.68,1.12,2.52.84.56-.28.84-.84,1.4-.84s1.12-.28,1.4-.56c.56-.84,1.4-.56,1.68-.56.56.28.84-.28.84-.84,0-.28-.56-.56-.84-1.12-.28-.28-.84-.84-1.4-.84-.84,0-.56-1.12.84-1.68,1.12-.28,1.96.56,1.96.84.28.56.56.84,1.12,1.12.56.28,1.12-.56,1.4-.84.56-.56.56-1.4,0-1.68l-1.68-1.68c-.28-.56-.28-1.12-.28-1.4.28-.56.56-.84,1.12-.84.28,0,.56.84.56,1.4,0,.84.56,1.4,1.12,1.4.28,0,.56.28.84.28,0,0,0,.28.28.28v-.56c-.28,0-.56-.56-.56-1.12.28-.84.56-1.12.84-.56.28.28,1.12.28,1.68-.28.56-.84,1.12-1.4,1.12-1.96,0-.28-.56-.56-.84-.56-.56,0-1.12.28-.84.84,0,.28-.84.84-1.68.84s-.84-.56-.56-1.12c.56-.84,1.4-1.12,1.96-1.4.56-.28.84-.56,1.4-.28h1.68c.84-.28,1.12-.56.84-.84ZM733.54,292c-.28.56.56.56.56,0s-.56-.28-.56,0ZM734.1,326.16c0-.28-.56-.28-.56,0s.56.28.56,0ZM734.38,330.64c0-.28-.28-.56-.28-.28s.28.56.28.28ZM734.94,330.08h-.28s0,.28.28.28v-.28ZM737.46,287.8c0,.28,0,1.12.28,1.12.28.28.84.28,1.4,0,.56-.28.84-.56,1.12-.84v-.28c0-.28-.28-.56-.56-.56h-.56c-.28,0-.56-.28-.56-.28-.56-.28-1.12.28-1.12.84ZM738.58,323.36c0,.28-.56.28-.56,0s.56-.28.56,0ZM741.94,328.12c0-.56-.56-.84-.84-.84s-.84.28-.84.84c-.28.56,0,.84.56.84s1.12-.28,1.12-.84ZM741.38,302.36c0,.28-.28.56-.56.56s-.28-.56,0-.84c.28-.28.56,0,.56.28ZM741.94,301.52q0,.28-.28.28s-.28,0-.28-.28c0,0,.28,0,.28-.28l.28.28ZM741.66,330.36c-.28,0-.28.28,0,.28s.28-.28,0-.28ZM743.06,294.52c0,.56-.28.56-.56,0v-.56c.28,0,.56.28.56.56ZM743.06,305.44c0-.28.28-.84.56-.84s.56.56.56.84-.28.28-.56.28-.56,0-.56-.28ZM743.9,320.28c-.28-.56-.84-1.12-.84-1.4s.28-.56.56-.56.56.56,1.12,1.12c.28.84-.28,1.12-.84.84ZM745.86,324.48c0,.28-.28,1.12-.84,1.12s-1.4-.28-.84-.56c0-.28.28-.56,0-.84v-.56c0-.56.56-.56.84-.56.28.28.84.84.84,1.4ZM744.18,306.84c.28-.56.56-.84.56-.28.28.56-.56.56-.56.28ZM750.34,318.32c0,.28-.56.56-1.12.28-.28-.28,0-.84.28-.84.56,0,1.12.28.84.56ZM750.9,300.68c0,.56-.56.56-.56,0,0-.28.56-.28.56,0ZM750.62,294.24c0-.28.28-.28.28,0s-.28.28-.28,0ZM751.74,307.68h.28c0,.28-.28.28-.28,0ZM753.7,313.28c.56.28.84.28,0,.56-.56.28-1.4.28-1.68.28-.28-.28-.28-.84,0-1.12.28,0,.84-.28,1.68.28ZM753.7,296.2c0,.28.56.56,1.12.56.28,0,.84-.28.84-.84-.28-.56-.84-.84-1.12-.84-.56,0-.84.56-.84,1.12ZM758.18,312.16h-1.12c-.28,0-.28.28-.56.56,0,.28-.28.28-.84.28-.28,0-.84-.28-.56-.84.28-.28.56-.28.56-.56q.28-.28.28-.56c.28-.28,1.12-.84,1.68-.28.56.28.84,1.12.56,1.4ZM756.22,298.16c0,.28.28.28.28,0s-.28-.28-.28,0ZM756.22,307.4s.56-.56.84-.28c.56.28.56.84,0,.84-.56.28-.84-.28-.84-.56ZM759.58,303.48c0,.56.56.56.56,0,0-.28-.56-.28-.56,0Z"/>
</svg>